<?xml version="1.0" encoding="utf-8" standalone="no"?>
<!DOCTYPE svg PUBLIC "-//W3C//DTD SVG 1.1//EN"
  "http://www.w3.org/Graphics/SVG/1.1/DTD/svg11.dtd">
<svg xmlns:xlink="http://www.w3.org/1999/xlink" width="781.92pt" height="509.76pt" viewBox="0 0 781.92 509.76" xmlns="http://www.w3.org/2000/svg" version="1.1">
 <metadata>
  <rdf:RDF xmlns:dc="http://purl.org/dc/elements/1.1/" xmlns:cc="http://creativecommons.org/ns#" xmlns:rdf="http://www.w3.org/1999/02/22-rdf-syntax-ns#">
   <cc:Work>
    <dc:type rdf:resource="http://purl.org/dc/dcmitype/StillImage"/>
    <dc:date>2023-08-01T08:01:13.789601</dc:date>
    <dc:format>image/svg+xml</dc:format>
    <dc:creator>
     <cc:Agent>
      <dc:title>Matplotlib v3.5.2, https://matplotlib.org/</dc:title>
     </cc:Agent>
    </dc:creator>
   </cc:Work>
  </rdf:RDF>
 </metadata>
 <defs>
  <style type="text/css">*{stroke-linejoin: round; stroke-linecap: butt}</style>
 </defs>
 <g id="figure_1">
  <g id="patch_1">
   <path d="M 0 509.76 
L 781.92 509.76 
L 781.92 0 
L 0 0 
z
" style="fill: #ffffff"/>
  </g>
  <g id="axes_1">
   <g id="patch_2">
    <path d="M 97.74 453.6864 
L 703.728 453.6864 
L 703.728 61.1712 
L 97.74 61.1712 
z
" style="fill: #ffffff"/>
   </g>
   <g id="matplotlib.axis_1">
    <g id="xtick_1">
     <g id="line2d_1">
      <defs>
       <path id="md4004553fa" d="M 0 0 
L 0 3.5 
" style="stroke: #000000; stroke-width: 0.8"/>
      </defs>
      <g>
       <use xlink:href="#md4004553fa" x="97.74" y="453.6864" style="stroke: #000000; stroke-width: 0.8"/>
      </g>
     </g>
     <g id="text_1">
      <!-- 0 -->
      <g transform="translate(94.55875 468.284837)scale(0.1 -0.1)">
       <defs>
        <path id="DejaVuSans-30" d="M 2034 4250 
Q 1547 4250 1301 3770 
Q 1056 3291 1056 2328 
Q 1056 1369 1301 889 
Q 1547 409 2034 409 
Q 2525 409 2770 889 
Q 3016 1369 3016 2328 
Q 3016 3291 2770 3770 
Q 2525 4250 2034 4250 
z
M 2034 4750 
Q 2819 4750 3233 4129 
Q 3647 3509 3647 2328 
Q 3647 1150 3233 529 
Q 2819 -91 2034 -91 
Q 1250 -91 836 529 
Q 422 1150 422 2328 
Q 422 3509 836 4129 
Q 1250 4750 2034 4750 
z
" transform="scale(0.015625)"/>
       </defs>
       <use xlink:href="#DejaVuSans-30"/>
      </g>
     </g>
    </g>
    <g id="xtick_2">
     <g id="line2d_2">
      <g>
       <use xlink:href="#md4004553fa" x="218.935176" y="453.6864" style="stroke: #000000; stroke-width: 0.8"/>
      </g>
     </g>
     <g id="text_2">
      <!-- 20 -->
      <g transform="translate(212.572676 468.284837)scale(0.1 -0.1)">
       <defs>
        <path id="DejaVuSans-32" d="M 1228 531 
L 3431 531 
L 3431 0 
L 469 0 
L 469 531 
Q 828 903 1448 1529 
Q 2069 2156 2228 2338 
Q 2531 2678 2651 2914 
Q 2772 3150 2772 3378 
Q 2772 3750 2511 3984 
Q 2250 4219 1831 4219 
Q 1534 4219 1204 4116 
Q 875 4013 500 3803 
L 500 4441 
Q 881 4594 1212 4672 
Q 1544 4750 1819 4750 
Q 2544 4750 2975 4387 
Q 3406 4025 3406 3419 
Q 3406 3131 3298 2873 
Q 3191 2616 2906 2266 
Q 2828 2175 2409 1742 
Q 1991 1309 1228 531 
z
" transform="scale(0.015625)"/>
       </defs>
       <use xlink:href="#DejaVuSans-32"/>
       <use xlink:href="#DejaVuSans-30" x="63.623047"/>
      </g>
     </g>
    </g>
    <g id="xtick_3">
     <g id="line2d_3">
      <g>
       <use xlink:href="#md4004553fa" x="340.130352" y="453.6864" style="stroke: #000000; stroke-width: 0.8"/>
      </g>
     </g>
     <g id="text_3">
      <!-- 40 -->
      <g transform="translate(333.767852 468.284837)scale(0.1 -0.1)">
       <defs>
        <path id="DejaVuSans-34" d="M 2419 4116 
L 825 1625 
L 2419 1625 
L 2419 4116 
z
M 2253 4666 
L 3047 4666 
L 3047 1625 
L 3713 1625 
L 3713 1100 
L 3047 1100 
L 3047 0 
L 2419 0 
L 2419 1100 
L 313 1100 
L 313 1709 
L 2253 4666 
z
" transform="scale(0.015625)"/>
       </defs>
       <use xlink:href="#DejaVuSans-34"/>
       <use xlink:href="#DejaVuSans-30" x="63.623047"/>
      </g>
     </g>
    </g>
    <g id="xtick_4">
     <g id="line2d_4">
      <g>
       <use xlink:href="#md4004553fa" x="461.325528" y="453.6864" style="stroke: #000000; stroke-width: 0.8"/>
      </g>
     </g>
     <g id="text_4">
      <!-- 60 -->
      <g transform="translate(454.963028 468.284837)scale(0.1 -0.1)">
       <defs>
        <path id="DejaVuSans-36" d="M 2113 2584 
Q 1688 2584 1439 2293 
Q 1191 2003 1191 1497 
Q 1191 994 1439 701 
Q 1688 409 2113 409 
Q 2538 409 2786 701 
Q 3034 994 3034 1497 
Q 3034 2003 2786 2293 
Q 2538 2584 2113 2584 
z
M 3366 4563 
L 3366 3988 
Q 3128 4100 2886 4159 
Q 2644 4219 2406 4219 
Q 1781 4219 1451 3797 
Q 1122 3375 1075 2522 
Q 1259 2794 1537 2939 
Q 1816 3084 2150 3084 
Q 2853 3084 3261 2657 
Q 3669 2231 3669 1497 
Q 3669 778 3244 343 
Q 2819 -91 2113 -91 
Q 1303 -91 875 529 
Q 447 1150 447 2328 
Q 447 3434 972 4092 
Q 1497 4750 2381 4750 
Q 2619 4750 2861 4703 
Q 3103 4656 3366 4563 
z
" transform="scale(0.015625)"/>
       </defs>
       <use xlink:href="#DejaVuSans-36"/>
       <use xlink:href="#DejaVuSans-30" x="63.623047"/>
      </g>
     </g>
    </g>
    <g id="xtick_5">
     <g id="line2d_5">
      <g>
       <use xlink:href="#md4004553fa" x="582.520704" y="453.6864" style="stroke: #000000; stroke-width: 0.8"/>
      </g>
     </g>
     <g id="text_5">
      <!-- 80 -->
      <g transform="translate(576.158204 468.284837)scale(0.1 -0.1)">
       <defs>
        <path id="DejaVuSans-38" d="M 2034 2216 
Q 1584 2216 1326 1975 
Q 1069 1734 1069 1313 
Q 1069 891 1326 650 
Q 1584 409 2034 409 
Q 2484 409 2743 651 
Q 3003 894 3003 1313 
Q 3003 1734 2745 1975 
Q 2488 2216 2034 2216 
z
M 1403 2484 
Q 997 2584 770 2862 
Q 544 3141 544 3541 
Q 544 4100 942 4425 
Q 1341 4750 2034 4750 
Q 2731 4750 3128 4425 
Q 3525 4100 3525 3541 
Q 3525 3141 3298 2862 
Q 3072 2584 2669 2484 
Q 3125 2378 3379 2068 
Q 3634 1759 3634 1313 
Q 3634 634 3220 271 
Q 2806 -91 2034 -91 
Q 1263 -91 848 271 
Q 434 634 434 1313 
Q 434 1759 690 2068 
Q 947 2378 1403 2484 
z
M 1172 3481 
Q 1172 3119 1398 2916 
Q 1625 2713 2034 2713 
Q 2441 2713 2670 2916 
Q 2900 3119 2900 3481 
Q 2900 3844 2670 4047 
Q 2441 4250 2034 4250 
Q 1625 4250 1398 4047 
Q 1172 3844 1172 3481 
z
" transform="scale(0.015625)"/>
       </defs>
       <use xlink:href="#DejaVuSans-38"/>
       <use xlink:href="#DejaVuSans-30" x="63.623047"/>
      </g>
     </g>
    </g>
    <g id="xtick_6">
     <g id="line2d_6">
      <g>
       <use xlink:href="#md4004553fa" x="703.71588" y="453.6864" style="stroke: #000000; stroke-width: 0.8"/>
      </g>
     </g>
     <g id="text_6">
      <!-- 100 -->
      <g transform="translate(694.17213 468.284837)scale(0.1 -0.1)">
       <defs>
        <path id="DejaVuSans-31" d="M 794 531 
L 1825 531 
L 1825 4091 
L 703 3866 
L 703 4441 
L 1819 4666 
L 2450 4666 
L 2450 531 
L 3481 531 
L 3481 0 
L 794 0 
L 794 531 
z
" transform="scale(0.015625)"/>
       </defs>
       <use xlink:href="#DejaVuSans-31"/>
       <use xlink:href="#DejaVuSans-30" x="63.623047"/>
       <use xlink:href="#DejaVuSans-30" x="127.246094"/>
      </g>
     </g>
    </g>
    <g id="text_7">
     <!-- Time (nsec) -->
     <g transform="translate(353.8165 486.522025)scale(0.16 -0.16)">
      <defs>
       <path id="DejaVuSans-54" d="M -19 4666 
L 3928 4666 
L 3928 4134 
L 2272 4134 
L 2272 0 
L 1638 0 
L 1638 4134 
L -19 4134 
L -19 4666 
z
" transform="scale(0.015625)"/>
       <path id="DejaVuSans-69" d="M 603 3500 
L 1178 3500 
L 1178 0 
L 603 0 
L 603 3500 
z
M 603 4863 
L 1178 4863 
L 1178 4134 
L 603 4134 
L 603 4863 
z
" transform="scale(0.015625)"/>
       <path id="DejaVuSans-6d" d="M 3328 2828 
Q 3544 3216 3844 3400 
Q 4144 3584 4550 3584 
Q 5097 3584 5394 3201 
Q 5691 2819 5691 2113 
L 5691 0 
L 5113 0 
L 5113 2094 
Q 5113 2597 4934 2840 
Q 4756 3084 4391 3084 
Q 3944 3084 3684 2787 
Q 3425 2491 3425 1978 
L 3425 0 
L 2847 0 
L 2847 2094 
Q 2847 2600 2669 2842 
Q 2491 3084 2119 3084 
Q 1678 3084 1418 2786 
Q 1159 2488 1159 1978 
L 1159 0 
L 581 0 
L 581 3500 
L 1159 3500 
L 1159 2956 
Q 1356 3278 1631 3431 
Q 1906 3584 2284 3584 
Q 2666 3584 2933 3390 
Q 3200 3197 3328 2828 
z
" transform="scale(0.015625)"/>
       <path id="DejaVuSans-65" d="M 3597 1894 
L 3597 1613 
L 953 1613 
Q 991 1019 1311 708 
Q 1631 397 2203 397 
Q 2534 397 2845 478 
Q 3156 559 3463 722 
L 3463 178 
Q 3153 47 2828 -22 
Q 2503 -91 2169 -91 
Q 1331 -91 842 396 
Q 353 884 353 1716 
Q 353 2575 817 3079 
Q 1281 3584 2069 3584 
Q 2775 3584 3186 3129 
Q 3597 2675 3597 1894 
z
M 3022 2063 
Q 3016 2534 2758 2815 
Q 2500 3097 2075 3097 
Q 1594 3097 1305 2825 
Q 1016 2553 972 2059 
L 3022 2063 
z
" transform="scale(0.015625)"/>
       <path id="DejaVuSans-20" transform="scale(0.015625)"/>
       <path id="DejaVuSans-28" d="M 1984 4856 
Q 1566 4138 1362 3434 
Q 1159 2731 1159 2009 
Q 1159 1288 1364 580 
Q 1569 -128 1984 -844 
L 1484 -844 
Q 1016 -109 783 600 
Q 550 1309 550 2009 
Q 550 2706 781 3412 
Q 1013 4119 1484 4856 
L 1984 4856 
z
" transform="scale(0.015625)"/>
       <path id="DejaVuSans-6e" d="M 3513 2113 
L 3513 0 
L 2938 0 
L 2938 2094 
Q 2938 2591 2744 2837 
Q 2550 3084 2163 3084 
Q 1697 3084 1428 2787 
Q 1159 2491 1159 1978 
L 1159 0 
L 581 0 
L 581 3500 
L 1159 3500 
L 1159 2956 
Q 1366 3272 1645 3428 
Q 1925 3584 2291 3584 
Q 2894 3584 3203 3211 
Q 3513 2838 3513 2113 
z
" transform="scale(0.015625)"/>
       <path id="DejaVuSans-73" d="M 2834 3397 
L 2834 2853 
Q 2591 2978 2328 3040 
Q 2066 3103 1784 3103 
Q 1356 3103 1142 2972 
Q 928 2841 928 2578 
Q 928 2378 1081 2264 
Q 1234 2150 1697 2047 
L 1894 2003 
Q 2506 1872 2764 1633 
Q 3022 1394 3022 966 
Q 3022 478 2636 193 
Q 2250 -91 1575 -91 
Q 1294 -91 989 -36 
Q 684 19 347 128 
L 347 722 
Q 666 556 975 473 
Q 1284 391 1588 391 
Q 1994 391 2212 530 
Q 2431 669 2431 922 
Q 2431 1156 2273 1281 
Q 2116 1406 1581 1522 
L 1381 1569 
Q 847 1681 609 1914 
Q 372 2147 372 2553 
Q 372 3047 722 3315 
Q 1072 3584 1716 3584 
Q 2034 3584 2315 3537 
Q 2597 3491 2834 3397 
z
" transform="scale(0.015625)"/>
       <path id="DejaVuSans-63" d="M 3122 3366 
L 3122 2828 
Q 2878 2963 2633 3030 
Q 2388 3097 2138 3097 
Q 1578 3097 1268 2742 
Q 959 2388 959 1747 
Q 959 1106 1268 751 
Q 1578 397 2138 397 
Q 2388 397 2633 464 
Q 2878 531 3122 666 
L 3122 134 
Q 2881 22 2623 -34 
Q 2366 -91 2075 -91 
Q 1284 -91 818 406 
Q 353 903 353 1747 
Q 353 2603 823 3093 
Q 1294 3584 2113 3584 
Q 2378 3584 2631 3529 
Q 2884 3475 3122 3366 
z
" transform="scale(0.015625)"/>
       <path id="DejaVuSans-29" d="M 513 4856 
L 1013 4856 
Q 1481 4119 1714 3412 
Q 1947 2706 1947 2009 
Q 1947 1309 1714 600 
Q 1481 -109 1013 -844 
L 513 -844 
Q 928 -128 1133 580 
Q 1338 1288 1338 2009 
Q 1338 2731 1133 3434 
Q 928 4138 513 4856 
z
" transform="scale(0.015625)"/>
      </defs>
      <use xlink:href="#DejaVuSans-54"/>
      <use xlink:href="#DejaVuSans-69" x="57.958984"/>
      <use xlink:href="#DejaVuSans-6d" x="85.742188"/>
      <use xlink:href="#DejaVuSans-65" x="183.154297"/>
      <use xlink:href="#DejaVuSans-20" x="244.677734"/>
      <use xlink:href="#DejaVuSans-28" x="276.464844"/>
      <use xlink:href="#DejaVuSans-6e" x="315.478516"/>
      <use xlink:href="#DejaVuSans-73" x="378.857422"/>
      <use xlink:href="#DejaVuSans-65" x="430.957031"/>
      <use xlink:href="#DejaVuSans-63" x="492.480469"/>
      <use xlink:href="#DejaVuSans-29" x="547.460938"/>
     </g>
    </g>
   </g>
   <g id="matplotlib.axis_2">
    <g id="ytick_1">
     <g id="line2d_7">
      <defs>
       <path id="mf865467f5a" d="M 0 0 
L -3.5 0 
" style="stroke: #000000; stroke-width: 0.8"/>
      </defs>
      <g>
       <use xlink:href="#mf865467f5a" x="97.74" y="412.181145" style="stroke: #000000; stroke-width: 0.8"/>
      </g>
     </g>
     <g id="text_8">
      <!-- 0.15 -->
      <g transform="translate(68.474375 415.980363)scale(0.1 -0.1)">
       <defs>
        <path id="DejaVuSans-2e" d="M 684 794 
L 1344 794 
L 1344 0 
L 684 0 
L 684 794 
z
" transform="scale(0.015625)"/>
        <path id="DejaVuSans-35" d="M 691 4666 
L 3169 4666 
L 3169 4134 
L 1269 4134 
L 1269 2991 
Q 1406 3038 1543 3061 
Q 1681 3084 1819 3084 
Q 2600 3084 3056 2656 
Q 3513 2228 3513 1497 
Q 3513 744 3044 326 
Q 2575 -91 1722 -91 
Q 1428 -91 1123 -41 
Q 819 9 494 109 
L 494 744 
Q 775 591 1075 516 
Q 1375 441 1709 441 
Q 2250 441 2565 725 
Q 2881 1009 2881 1497 
Q 2881 1984 2565 2268 
Q 2250 2553 1709 2553 
Q 1456 2553 1204 2497 
Q 953 2441 691 2322 
L 691 4666 
z
" transform="scale(0.015625)"/>
       </defs>
       <use xlink:href="#DejaVuSans-30"/>
       <use xlink:href="#DejaVuSans-2e" x="63.623047"/>
       <use xlink:href="#DejaVuSans-31" x="95.410156"/>
       <use xlink:href="#DejaVuSans-35" x="159.033203"/>
      </g>
     </g>
    </g>
    <g id="ytick_2">
     <g id="line2d_8">
      <g>
       <use xlink:href="#mf865467f5a" x="97.74" y="370.675889" style="stroke: #000000; stroke-width: 0.8"/>
      </g>
     </g>
     <g id="text_9">
      <!-- 0.30 -->
      <g transform="translate(68.474375 374.475108)scale(0.1 -0.1)">
       <defs>
        <path id="DejaVuSans-33" d="M 2597 2516 
Q 3050 2419 3304 2112 
Q 3559 1806 3559 1356 
Q 3559 666 3084 287 
Q 2609 -91 1734 -91 
Q 1441 -91 1130 -33 
Q 819 25 488 141 
L 488 750 
Q 750 597 1062 519 
Q 1375 441 1716 441 
Q 2309 441 2620 675 
Q 2931 909 2931 1356 
Q 2931 1769 2642 2001 
Q 2353 2234 1838 2234 
L 1294 2234 
L 1294 2753 
L 1863 2753 
Q 2328 2753 2575 2939 
Q 2822 3125 2822 3475 
Q 2822 3834 2567 4026 
Q 2313 4219 1838 4219 
Q 1578 4219 1281 4162 
Q 984 4106 628 3988 
L 628 4550 
Q 988 4650 1302 4700 
Q 1616 4750 1894 4750 
Q 2613 4750 3031 4423 
Q 3450 4097 3450 3541 
Q 3450 3153 3228 2886 
Q 3006 2619 2597 2516 
z
" transform="scale(0.015625)"/>
       </defs>
       <use xlink:href="#DejaVuSans-30"/>
       <use xlink:href="#DejaVuSans-2e" x="63.623047"/>
       <use xlink:href="#DejaVuSans-33" x="95.410156"/>
       <use xlink:href="#DejaVuSans-30" x="159.033203"/>
      </g>
     </g>
    </g>
    <g id="ytick_3">
     <g id="line2d_9">
      <g>
       <use xlink:href="#mf865467f5a" x="97.74" y="329.170634" style="stroke: #000000; stroke-width: 0.8"/>
      </g>
     </g>
     <g id="text_10">
      <!-- 0.45 -->
      <g transform="translate(68.474375 332.969853)scale(0.1 -0.1)">
       <use xlink:href="#DejaVuSans-30"/>
       <use xlink:href="#DejaVuSans-2e" x="63.623047"/>
       <use xlink:href="#DejaVuSans-34" x="95.410156"/>
       <use xlink:href="#DejaVuSans-35" x="159.033203"/>
      </g>
     </g>
    </g>
    <g id="ytick_4">
     <g id="line2d_10">
      <g>
       <use xlink:href="#mf865467f5a" x="97.74" y="287.665379" style="stroke: #000000; stroke-width: 0.8"/>
      </g>
     </g>
     <g id="text_11">
      <!-- 0.60 -->
      <g transform="translate(68.474375 291.464597)scale(0.1 -0.1)">
       <use xlink:href="#DejaVuSans-30"/>
       <use xlink:href="#DejaVuSans-2e" x="63.623047"/>
       <use xlink:href="#DejaVuSans-36" x="95.410156"/>
       <use xlink:href="#DejaVuSans-30" x="159.033203"/>
      </g>
     </g>
    </g>
    <g id="ytick_5">
     <g id="line2d_11">
      <g>
       <use xlink:href="#mf865467f5a" x="97.74" y="246.160123" style="stroke: #000000; stroke-width: 0.8"/>
      </g>
     </g>
     <g id="text_12">
      <!-- 0.75 -->
      <g transform="translate(68.474375 249.959342)scale(0.1 -0.1)">
       <defs>
        <path id="DejaVuSans-37" d="M 525 4666 
L 3525 4666 
L 3525 4397 
L 1831 0 
L 1172 0 
L 2766 4134 
L 525 4134 
L 525 4666 
z
" transform="scale(0.015625)"/>
       </defs>
       <use xlink:href="#DejaVuSans-30"/>
       <use xlink:href="#DejaVuSans-2e" x="63.623047"/>
       <use xlink:href="#DejaVuSans-37" x="95.410156"/>
       <use xlink:href="#DejaVuSans-35" x="159.033203"/>
      </g>
     </g>
    </g>
    <g id="ytick_6">
     <g id="line2d_12">
      <g>
       <use xlink:href="#mf865467f5a" x="97.74" y="204.654868" style="stroke: #000000; stroke-width: 0.8"/>
      </g>
     </g>
     <g id="text_13">
      <!-- 0.90 -->
      <g transform="translate(68.474375 208.454087)scale(0.1 -0.1)">
       <defs>
        <path id="DejaVuSans-39" d="M 703 97 
L 703 672 
Q 941 559 1184 500 
Q 1428 441 1663 441 
Q 2288 441 2617 861 
Q 2947 1281 2994 2138 
Q 2813 1869 2534 1725 
Q 2256 1581 1919 1581 
Q 1219 1581 811 2004 
Q 403 2428 403 3163 
Q 403 3881 828 4315 
Q 1253 4750 1959 4750 
Q 2769 4750 3195 4129 
Q 3622 3509 3622 2328 
Q 3622 1225 3098 567 
Q 2575 -91 1691 -91 
Q 1453 -91 1209 -44 
Q 966 3 703 97 
z
M 1959 2075 
Q 2384 2075 2632 2365 
Q 2881 2656 2881 3163 
Q 2881 3666 2632 3958 
Q 2384 4250 1959 4250 
Q 1534 4250 1286 3958 
Q 1038 3666 1038 3163 
Q 1038 2656 1286 2365 
Q 1534 2075 1959 2075 
z
" transform="scale(0.015625)"/>
       </defs>
       <use xlink:href="#DejaVuSans-30"/>
       <use xlink:href="#DejaVuSans-2e" x="63.623047"/>
       <use xlink:href="#DejaVuSans-39" x="95.410156"/>
       <use xlink:href="#DejaVuSans-30" x="159.033203"/>
      </g>
     </g>
    </g>
    <g id="ytick_7">
     <g id="line2d_13">
      <g>
       <use xlink:href="#mf865467f5a" x="97.74" y="163.149612" style="stroke: #000000; stroke-width: 0.8"/>
      </g>
     </g>
     <g id="text_14">
      <!-- 1.05 -->
      <g transform="translate(68.474375 166.948831)scale(0.1 -0.1)">
       <use xlink:href="#DejaVuSans-31"/>
       <use xlink:href="#DejaVuSans-2e" x="63.623047"/>
       <use xlink:href="#DejaVuSans-30" x="95.410156"/>
       <use xlink:href="#DejaVuSans-35" x="159.033203"/>
      </g>
     </g>
    </g>
    <g id="ytick_8">
     <g id="line2d_14">
      <g>
       <use xlink:href="#mf865467f5a" x="97.74" y="121.644357" style="stroke: #000000; stroke-width: 0.8"/>
      </g>
     </g>
     <g id="text_15">
      <!-- 1.20 -->
      <g transform="translate(68.474375 125.443576)scale(0.1 -0.1)">
       <use xlink:href="#DejaVuSans-31"/>
       <use xlink:href="#DejaVuSans-2e" x="63.623047"/>
       <use xlink:href="#DejaVuSans-32" x="95.410156"/>
       <use xlink:href="#DejaVuSans-30" x="159.033203"/>
      </g>
     </g>
    </g>
    <g id="ytick_9">
     <g id="line2d_15">
      <g>
       <use xlink:href="#mf865467f5a" x="97.74" y="80.139102" style="stroke: #000000; stroke-width: 0.8"/>
      </g>
     </g>
     <g id="text_16">
      <!-- 1.35 -->
      <g transform="translate(68.474375 83.93832)scale(0.1 -0.1)">
       <use xlink:href="#DejaVuSans-31"/>
       <use xlink:href="#DejaVuSans-2e" x="63.623047"/>
       <use xlink:href="#DejaVuSans-33" x="95.410156"/>
       <use xlink:href="#DejaVuSans-35" x="159.033203"/>
      </g>
     </g>
    </g>
    <g id="text_17">
     <!-- Protein RMSD ($\AA$) -->
     <g transform="translate(61.146875 325.7488)rotate(-90)scale(0.16 -0.16)">
      <defs>
       <path id="DejaVuSans-50" d="M 1259 4147 
L 1259 2394 
L 2053 2394 
Q 2494 2394 2734 2622 
Q 2975 2850 2975 3272 
Q 2975 3691 2734 3919 
Q 2494 4147 2053 4147 
L 1259 4147 
z
M 628 4666 
L 2053 4666 
Q 2838 4666 3239 4311 
Q 3641 3956 3641 3272 
Q 3641 2581 3239 2228 
Q 2838 1875 2053 1875 
L 1259 1875 
L 1259 0 
L 628 0 
L 628 4666 
z
" transform="scale(0.015625)"/>
       <path id="DejaVuSans-72" d="M 2631 2963 
Q 2534 3019 2420 3045 
Q 2306 3072 2169 3072 
Q 1681 3072 1420 2755 
Q 1159 2438 1159 1844 
L 1159 0 
L 581 0 
L 581 3500 
L 1159 3500 
L 1159 2956 
Q 1341 3275 1631 3429 
Q 1922 3584 2338 3584 
Q 2397 3584 2469 3576 
Q 2541 3569 2628 3553 
L 2631 2963 
z
" transform="scale(0.015625)"/>
       <path id="DejaVuSans-6f" d="M 1959 3097 
Q 1497 3097 1228 2736 
Q 959 2375 959 1747 
Q 959 1119 1226 758 
Q 1494 397 1959 397 
Q 2419 397 2687 759 
Q 2956 1122 2956 1747 
Q 2956 2369 2687 2733 
Q 2419 3097 1959 3097 
z
M 1959 3584 
Q 2709 3584 3137 3096 
Q 3566 2609 3566 1747 
Q 3566 888 3137 398 
Q 2709 -91 1959 -91 
Q 1206 -91 779 398 
Q 353 888 353 1747 
Q 353 2609 779 3096 
Q 1206 3584 1959 3584 
z
" transform="scale(0.015625)"/>
       <path id="DejaVuSans-74" d="M 1172 4494 
L 1172 3500 
L 2356 3500 
L 2356 3053 
L 1172 3053 
L 1172 1153 
Q 1172 725 1289 603 
Q 1406 481 1766 481 
L 2356 481 
L 2356 0 
L 1766 0 
Q 1100 0 847 248 
Q 594 497 594 1153 
L 594 3053 
L 172 3053 
L 172 3500 
L 594 3500 
L 594 4494 
L 1172 4494 
z
" transform="scale(0.015625)"/>
       <path id="DejaVuSans-52" d="M 2841 2188 
Q 3044 2119 3236 1894 
Q 3428 1669 3622 1275 
L 4263 0 
L 3584 0 
L 2988 1197 
Q 2756 1666 2539 1819 
Q 2322 1972 1947 1972 
L 1259 1972 
L 1259 0 
L 628 0 
L 628 4666 
L 2053 4666 
Q 2853 4666 3247 4331 
Q 3641 3997 3641 3322 
Q 3641 2881 3436 2590 
Q 3231 2300 2841 2188 
z
M 1259 4147 
L 1259 2491 
L 2053 2491 
Q 2509 2491 2742 2702 
Q 2975 2913 2975 3322 
Q 2975 3731 2742 3939 
Q 2509 4147 2053 4147 
L 1259 4147 
z
" transform="scale(0.015625)"/>
       <path id="DejaVuSans-4d" d="M 628 4666 
L 1569 4666 
L 2759 1491 
L 3956 4666 
L 4897 4666 
L 4897 0 
L 4281 0 
L 4281 4097 
L 3078 897 
L 2444 897 
L 1241 4097 
L 1241 0 
L 628 0 
L 628 4666 
z
" transform="scale(0.015625)"/>
       <path id="DejaVuSans-53" d="M 3425 4513 
L 3425 3897 
Q 3066 4069 2747 4153 
Q 2428 4238 2131 4238 
Q 1616 4238 1336 4038 
Q 1056 3838 1056 3469 
Q 1056 3159 1242 3001 
Q 1428 2844 1947 2747 
L 2328 2669 
Q 3034 2534 3370 2195 
Q 3706 1856 3706 1288 
Q 3706 609 3251 259 
Q 2797 -91 1919 -91 
Q 1588 -91 1214 -16 
Q 841 59 441 206 
L 441 856 
Q 825 641 1194 531 
Q 1563 422 1919 422 
Q 2459 422 2753 634 
Q 3047 847 3047 1241 
Q 3047 1584 2836 1778 
Q 2625 1972 2144 2069 
L 1759 2144 
Q 1053 2284 737 2584 
Q 422 2884 422 3419 
Q 422 4038 858 4394 
Q 1294 4750 2059 4750 
Q 2388 4750 2728 4690 
Q 3069 4631 3425 4513 
z
" transform="scale(0.015625)"/>
       <path id="DejaVuSans-44" d="M 1259 4147 
L 1259 519 
L 2022 519 
Q 2988 519 3436 956 
Q 3884 1394 3884 2338 
Q 3884 3275 3436 3711 
Q 2988 4147 2022 4147 
L 1259 4147 
z
M 628 4666 
L 1925 4666 
Q 3281 4666 3915 4102 
Q 4550 3538 4550 2338 
Q 4550 1131 3912 565 
Q 3275 0 1925 0 
L 628 0 
L 628 4666 
z
" transform="scale(0.015625)"/>
       <path id="STIXGeneral-Italic-c5" d="M 3610 0 
L 2042 0 
L 2042 102 
Q 2330 115 2432 192 
Q 2534 269 2534 442 
Q 2534 493 2522 608 
L 2394 1446 
L 986 1446 
L 608 736 
Q 467 474 467 314 
Q 467 122 864 102 
L 864 0 
L -326 0 
L -326 102 
Q -109 147 28 307 
Q 166 467 531 1101 
L 2355 4275 
L 2522 4275 
L 3110 736 
Q 3174 339 3264 230 
Q 3354 122 3610 102 
L 3610 0 
z
M 2362 1677 
L 2074 3360 
L 1120 1677 
L 2362 1677 
z
M 3043 5936 
Q 3232 5747 3232 5484 
Q 3232 5222 3043 5036 
Q 2854 4851 2592 4851 
Q 2317 4851 2134 5036 
Q 1952 5222 1952 5491 
Q 1952 5747 2141 5936 
Q 2330 6125 2586 6125 
Q 2854 6125 3043 5936 
z
M 2892 5187 
Q 3014 5306 3014 5485 
Q 3014 5664 2889 5785 
Q 2765 5907 2586 5907 
Q 2419 5907 2294 5782 
Q 2170 5658 2170 5491 
Q 2170 5312 2288 5190 
Q 2406 5069 2586 5069 
Q 2771 5069 2892 5187 
z
" transform="scale(0.015625)"/>
      </defs>
      <use xlink:href="#DejaVuSans-50" transform="translate(0 0.296875)"/>
      <use xlink:href="#DejaVuSans-72" transform="translate(60.302734 0.296875)"/>
      <use xlink:href="#DejaVuSans-6f" transform="translate(101.416016 0.296875)"/>
      <use xlink:href="#DejaVuSans-74" transform="translate(162.597656 0.296875)"/>
      <use xlink:href="#DejaVuSans-65" transform="translate(201.806641 0.296875)"/>
      <use xlink:href="#DejaVuSans-69" transform="translate(263.330078 0.296875)"/>
      <use xlink:href="#DejaVuSans-6e" transform="translate(291.113281 0.296875)"/>
      <use xlink:href="#DejaVuSans-20" transform="translate(354.492188 0.296875)"/>
      <use xlink:href="#DejaVuSans-52" transform="translate(386.279297 0.296875)"/>
      <use xlink:href="#DejaVuSans-4d" transform="translate(455.761719 0.296875)"/>
      <use xlink:href="#DejaVuSans-53" transform="translate(542.041016 0.296875)"/>
      <use xlink:href="#DejaVuSans-44" transform="translate(605.517578 0.296875)"/>
      <use xlink:href="#DejaVuSans-20" transform="translate(682.519531 0.296875)"/>
      <use xlink:href="#DejaVuSans-28" transform="translate(714.306641 0.296875)"/>
      <use xlink:href="#STIXGeneral-Italic-c5" transform="translate(753.320312 0.296875)"/>
      <use xlink:href="#DejaVuSans-29" transform="translate(814.420303 0.296875)"/>
     </g>
    </g>
   </g>
   <g id="line2d_16">
    <path d="M 97.74 453.6864 
L 98.345988 184.455644 
L 98.951976 207.698587 
L 99.557964 187.222661 
L 100.163952 189.159572 
L 100.76994 199.397535 
L 101.375928 202.994658 
L 101.981916 195.24701 
L 102.587904 209.9122 
L 103.193892 185.285749 
L 103.79988 191.373186 
L 104.405868 168.406945 
L 105.011856 165.086524 
L 105.617844 189.436274 
L 106.223832 171.173962 
L 106.82982 162.042806 
L 107.435808 194.693607 
L 108.647784 186.945959 
L 109.253772 188.606169 
L 109.85976 183.072135 
L 110.465748 181.688626 
L 111.071736 159.829192 
L 112.283712 94.250889 
L 112.8897 149.037826 
L 113.495688 131.605618 
L 114.101676 128.5619 
L 114.707664 131.605618 
L 115.313652 149.591229 
L 115.91964 133.265829 
L 116.525628 112.789903 
L 117.131616 157.615578 
L 117.737604 164.256419 
L 118.343592 180.58182 
L 118.94958 172.834172 
L 120.161556 141.843581 
L 120.767544 157.062175 
L 121.373532 188.052766 
L 121.97952 192.479993 
L 123.191496 154.57186 
L 123.797484 185.839152 
L 125.00946 131.605618 
L 125.615448 134.372635 
L 126.221436 152.358246 
L 126.827424 154.848561 
L 127.433412 171.450664 
L 128.0394 150.421334 
L 128.645388 155.955368 
L 129.251376 152.081544 
L 129.857364 154.57186 
L 130.463352 163.703016 
L 131.06934 154.57186 
L 131.675328 161.212701 
L 132.281316 163.703016 
L 132.887304 154.295158 
L 133.493292 159.829192 
L 134.09928 157.615578 
L 134.705268 138.799863 
L 135.311256 142.673686 
L 135.917244 150.974738 
L 136.523232 174.494382 
L 137.12922 189.436274 
L 137.735208 193.5868 
L 138.341196 178.644908 
L 138.947184 199.950939 
L 139.553172 183.072135 
L 140.15916 148.761124 
L 140.765148 183.625538 
L 141.371136 146.824212 
L 141.977124 149.867931 
L 142.583112 169.790453 
L 143.1891 162.596209 
L 143.795088 154.018456 
L 144.401076 154.018456 
L 145.007064 175.047786 
L 145.613052 191.096484 
L 146.21904 139.076564 
L 146.825028 185.009047 
L 147.431016 180.028416 
L 148.037004 158.445683 
L 148.642992 146.824212 
L 149.24898 186.669257 
L 149.854968 161.489402 
L 150.460956 185.285749 
L 151.672932 158.999087 
L 152.27892 164.809823 
L 152.884908 168.683646 
L 153.490896 143.503792 
L 154.096884 174.771084 
L 154.702872 144.057195 
L 155.30886 180.028416 
L 155.914848 172.55747 
L 156.520836 186.945959 
L 157.126824 175.877891 
L 157.732812 151.804843 
L 158.3388 148.207721 
L 158.944788 158.999087 
L 159.550776 165.916629 
L 160.156764 134.926039 
L 160.762752 118.600638 
L 161.36874 141.013476 
L 161.974728 136.862951 
L 162.580716 129.945408 
L 163.186704 139.076564 
L 163.792692 117.770533 
L 164.39868 133.54253 
L 165.004668 158.722385 
L 165.610656 144.333897 
L 166.216644 154.018456 
L 166.822632 141.843581 
L 167.42862 139.076564 
L 168.034608 154.57186 
L 168.640596 164.809823 
L 169.246584 159.829192 
L 169.852572 135.479442 
L 170.45856 145.717405 
L 171.064548 188.329467 
L 171.670536 169.513752 
L 172.276524 163.979718 
L 172.882512 151.804843 
L 173.4885 136.309547 
L 174.094488 145.440703 
L 174.700476 157.615578 
L 175.306464 145.164002 
L 175.912452 119.984147 
L 177.124428 166.746735 
L 177.730416 143.503792 
L 178.336404 155.955368 
L 178.942392 131.328917 
L 179.54838 139.629968 
L 180.154368 127.731795 
L 180.760356 142.673686 
L 181.366344 172.280769 
L 181.972332 157.338877 
L 182.57832 148.484422 
L 183.184308 106.425763 
L 183.790296 150.974738 
L 184.396284 126.071584 
L 185.002272 148.761124 
L 185.60826 154.848561 
L 186.214248 155.401965 
L 186.820236 161.766104 
L 187.426224 162.319507 
L 188.032212 143.780493 
L 188.6382 139.906669 
L 189.244188 156.785473 
L 189.850176 167.023436 
L 190.456164 156.785473 
L 191.062152 173.110874 
L 191.66814 139.076564 
L 192.274128 136.862951 
L 192.880116 146.270809 
L 193.486104 137.969758 
L 194.092092 153.741755 
L 194.69808 126.624988 
L 195.304068 136.862951 
L 195.910056 129.392005 
L 196.516044 144.610598 
L 197.122032 144.333897 
L 197.72802 136.032846 
L 198.334008 142.673686 
L 198.939996 118.87734 
L 199.545984 129.115303 
L 200.151972 126.071584 
L 200.75796 132.712425 
L 201.363948 141.56688 
L 201.969936 139.629968 
L 202.575924 144.8873 
L 203.181912 155.955368 
L 203.7879 132.435723 
L 204.393888 134.926039 
L 204.999876 127.731795 
L 205.605864 129.668706 
L 206.211852 162.319507 
L 206.81784 105.595658 
L 207.423828 157.338877 
L 208.029816 157.615578 
L 208.635804 133.819232 
L 209.241792 140.460073 
L 209.84778 131.052215 
L 210.453768 137.693056 
L 211.059756 148.207721 
L 211.665744 135.756144 
L 212.271732 156.508772 
L 212.87772 122.474462 
L 213.483708 168.683646 
L 214.089696 163.979718 
L 214.695684 123.027866 
L 215.301672 155.125263 
L 215.90766 153.465053 
L 216.513648 163.979718 
L 217.119636 132.989127 
L 217.725624 155.955368 
L 218.331612 158.999087 
L 218.9376 158.999087 
L 219.543588 150.974738 
L 220.149576 172.834172 
L 220.755564 136.032846 
L 221.361552 141.290178 
L 221.96754 134.095934 
L 222.573528 150.698036 
L 223.179516 145.717405 
L 223.785504 161.489402 
L 224.391492 165.639928 
L 224.99748 136.586249 
L 225.603468 177.538101 
L 226.209456 138.246459 
L 226.815444 151.804843 
L 227.421432 143.22709 
L 228.02742 141.56688 
L 228.633408 136.586249 
L 229.239396 135.479442 
L 229.845384 151.804843 
L 230.451372 108.916079 
L 231.05736 150.698036 
L 231.663348 133.819232 
L 232.269336 103.382045 
L 232.875324 98.954817 
L 233.481312 113.343306 
L 234.0873 154.848561 
L 234.693288 161.766104 
L 235.299276 147.654317 
L 235.905264 154.57186 
L 236.511252 154.57186 
L 237.11724 160.659297 
L 237.723228 147.931019 
L 238.329216 149.591229 
L 238.935204 152.358246 
L 239.541192 166.470033 
L 240.14718 158.445683 
L 240.753168 167.300138 
L 241.359156 121.367655 
L 241.965144 136.309547 
L 242.571132 169.790453 
L 243.17712 168.406945 
L 243.783108 161.489402 
L 244.389096 130.775513 
L 244.995084 144.8873 
L 245.601072 133.265829 
L 246.20706 151.804843 
L 246.813048 123.581269 
L 247.419036 162.596209 
L 248.025024 178.921609 
L 248.631012 163.426314 
L 249.237 122.474462 
L 249.842988 147.654317 
L 250.448976 148.484422 
L 251.054964 120.260849 
L 251.660952 142.950388 
L 252.26694 141.843581 
L 252.872928 140.183371 
L 253.478916 97.571309 
L 254.084904 143.780493 
L 254.690892 112.236499 
L 255.29688 115.833621 
L 255.902868 124.688076 
L 256.508856 121.644357 
L 257.114844 143.22709 
L 257.720832 118.87734 
L 258.32682 147.100914 
L 258.932808 141.013476 
L 259.538796 122.474462 
L 260.144784 179.751715 
L 260.750772 149.314527 
L 261.35676 188.882871 
L 261.962748 135.479442 
L 262.568736 141.290178 
L 263.174724 142.120283 
L 263.780712 148.761124 
L 264.3867 127.731795 
L 264.992688 154.57186 
L 265.598676 141.843581 
L 266.204664 168.130243 
L 266.810652 135.756144 
L 267.41664 142.673686 
L 268.022628 141.56688 
L 268.628616 128.285198 
L 269.234604 161.489402 
L 269.840592 175.047786 
L 270.44658 139.076564 
L 271.052568 127.178391 
L 271.658556 147.100914 
L 272.264544 131.88232 
L 272.870532 164.256419 
L 273.47652 150.974738 
L 274.082508 128.838601 
L 274.688496 145.994107 
L 275.294484 146.824212 
L 275.900472 125.794883 
L 276.50646 149.314527 
L 277.112448 87.886749 
L 277.718436 141.290178 
L 278.324424 120.260849 
L 278.930412 146.824212 
L 279.5364 163.703016 
L 280.142388 141.290178 
L 280.748376 123.027866 
L 281.354364 146.824212 
L 281.960352 110.299587 
L 282.56634 117.493832 
L 283.172328 117.770533 
L 283.778316 120.53755 
L 284.384304 131.605618 
L 284.990292 127.455093 
L 285.59628 154.018456 
L 286.202268 136.586249 
L 286.808256 127.455093 
L 287.414244 157.89228 
L 288.020232 169.790453 
L 288.62622 160.382595 
L 289.232208 118.87734 
L 289.838196 143.503792 
L 290.444184 155.125263 
L 291.050172 137.969758 
L 291.65616 169.790453 
L 292.262148 149.314527 
L 292.868136 135.20274 
L 293.474124 166.193331 
L 294.080112 141.013476 
L 295.292088 156.508772 
L 295.898076 150.698036 
L 296.504064 132.159022 
L 297.110052 130.22211 
L 297.71604 117.770533 
L 298.322028 120.53755 
L 298.928016 147.377615 
L 299.534004 135.20274 
L 300.139992 157.062175 
L 300.74598 137.416354 
L 301.351968 155.401965 
L 302.563944 120.260849 
L 303.169932 172.55747 
L 303.77592 178.091504 
L 304.381908 156.23207 
L 304.987896 114.726815 
L 305.593884 160.935999 
L 306.199872 155.125263 
L 306.80586 172.834172 
L 307.411848 158.999087 
L 308.017836 160.659297 
L 308.623824 169.513752 
L 309.229812 159.275789 
L 309.8358 110.852991 
L 310.441788 162.596209 
L 311.047776 146.270809 
L 311.653764 169.513752 
L 312.259752 161.212701 
L 312.86574 139.906669 
L 313.471728 150.144632 
L 314.077716 155.401965 
L 314.683704 191.926589 
L 315.289692 182.24203 
L 315.89568 183.348837 
L 316.501668 160.659297 
L 317.107656 165.639928 
L 317.713644 158.445683 
L 318.319632 142.396985 
L 318.92562 155.955368 
L 319.531608 161.489402 
L 320.137596 175.601189 
L 320.743584 159.55249 
L 321.349572 177.538101 
L 321.95556 137.969758 
L 322.561548 160.105894 
L 323.167536 155.125263 
L 323.773524 136.586249 
L 324.379512 170.620558 
L 324.9855 149.867931 
L 326.197476 142.950388 
L 326.803464 154.848561 
L 327.409452 149.037826 
L 328.01544 144.333897 
L 328.621428 166.746735 
L 329.227416 136.032846 
L 329.833404 156.23207 
L 330.439392 159.275789 
L 331.04538 114.450113 
L 331.651368 170.89726 
L 332.257356 176.984698 
L 332.863344 168.683646 
L 333.469332 176.431294 
L 334.07532 174.771084 
L 334.681308 191.096484 
L 335.287296 152.911649 
L 335.893284 167.853541 
L 336.499272 162.319507 
L 337.10526 189.159572 
L 337.711248 157.062175 
L 338.317236 165.086524 
L 338.923224 142.396985 
L 339.529212 132.435723 
L 340.1352 136.309547 
L 340.741188 179.475013 
L 341.347176 145.717405 
L 341.953164 134.926039 
L 342.559152 138.246459 
L 343.16514 156.23207 
L 343.771128 159.55249 
L 344.377116 173.664277 
L 344.983104 190.819783 
L 345.589092 176.984698 
L 346.19508 176.707996 
L 346.801068 169.513752 
L 347.407056 169.790453 
L 348.013044 157.615578 
L 348.619032 159.275789 
L 349.22502 170.620558 
L 349.831008 116.663726 
L 350.436996 149.591229 
L 351.042984 137.139652 
L 351.648972 140.736775 
L 352.25496 139.076564 
L 352.860948 127.455093 
L 353.466936 160.935999 
L 354.072924 163.703016 
L 354.678912 155.125263 
L 355.2849 167.57684 
L 355.890888 148.207721 
L 356.496876 160.659297 
L 357.102864 147.377615 
L 357.708852 128.285198 
L 358.31484 134.926039 
L 358.920828 136.862951 
L 359.526816 137.139652 
L 360.132804 117.493832 
L 360.738792 133.54253 
L 361.34478 140.183371 
L 361.950768 151.528141 
L 362.556756 134.926039 
L 363.768732 144.610598 
L 364.37472 150.974738 
L 364.980708 154.295158 
L 365.586696 149.591229 
L 366.192684 154.848561 
L 366.798672 164.809823 
L 367.40466 140.736775 
L 368.010648 122.474462 
L 368.616636 157.338877 
L 369.222624 149.591229 
L 369.828612 127.178391 
L 370.4346 135.20274 
L 371.040588 123.857971 
L 371.646576 100.338326 
L 372.252564 122.19776 
L 372.858552 135.20274 
L 373.46454 128.838601 
L 374.070528 154.848561 
L 374.676516 141.290178 
L 375.282504 111.406394 
L 375.888492 146.270809 
L 376.49448 170.067155 
L 377.100468 119.984147 
L 377.706456 141.843581 
L 378.312444 131.88232 
L 378.918432 134.926039 
L 379.52442 160.382595 
L 380.130408 125.241479 
L 380.736396 121.921059 
L 381.342384 137.693056 
L 381.948372 143.503792 
L 382.55436 158.445683 
L 383.160348 151.804843 
L 383.766336 146.54751 
L 384.372324 161.766104 
L 384.978312 122.474462 
L 385.5843 151.528141 
L 386.190288 158.445683 
L 386.796276 168.683646 
L 387.402264 151.804843 
L 388.008252 128.838601 
L 388.61424 146.270809 
L 389.220228 142.120283 
L 389.826216 183.348837 
L 390.432204 135.479442 
L 391.038192 165.639928 
L 391.64418 162.042806 
L 392.250168 139.629968 
L 392.856156 150.974738 
L 393.462144 127.178391 
L 394.068132 137.693056 
L 394.67412 136.032846 
L 395.280108 155.678666 
L 395.886096 139.353266 
L 396.492084 177.538101 
L 397.098072 171.450664 
L 397.70406 170.067155 
L 398.310048 150.144632 
L 398.916036 126.071584 
L 399.522024 147.377615 
L 400.128012 145.717405 
L 400.734 152.911649 
L 401.339988 144.610598 
L 401.945976 176.707996 
L 402.551964 130.498812 
L 403.157952 152.358246 
L 403.76394 130.775513 
L 404.369928 174.494382 
L 404.975916 155.678666 
L 405.581904 180.58182 
L 406.79388 156.785473 
L 407.399868 181.411925 
L 408.005856 158.722385 
L 408.611844 177.261399 
L 409.217832 163.426314 
L 409.82382 157.062175 
L 410.429808 138.799863 
L 411.035796 161.766104 
L 411.641784 174.217681 
L 412.247772 166.746735 
L 412.85376 153.741755 
L 413.459748 169.23705 
L 414.065736 144.8873 
L 414.671724 168.960348 
L 415.277712 149.591229 
L 415.8837 161.766104 
L 416.489688 181.135223 
L 417.095676 185.285749 
L 417.701664 162.319507 
L 418.307652 213.232621 
L 418.91364 179.751715 
L 419.519628 195.800413 
L 420.125616 171.450664 
L 420.731604 187.222661 
L 421.337592 184.455644 
L 421.94358 155.955368 
L 422.549568 148.207721 
L 423.155556 188.882871 
L 424.367532 137.139652 
L 424.97352 194.140203 
L 425.579508 168.406945 
L 426.185496 167.853541 
L 426.791484 125.794883 
L 427.397472 161.766104 
L 428.00346 160.105894 
L 428.609448 159.55249 
L 429.215436 146.824212 
L 429.821424 123.304567 
L 430.427412 182.795433 
L 431.0334 192.756695 
L 431.639388 199.120834 
L 432.245376 171.450664 
L 432.851364 199.120834 
L 433.457352 155.955368 
L 434.06334 165.639928 
L 434.669328 168.406945 
L 435.275316 161.766104 
L 435.881304 144.610598 
L 436.487292 159.55249 
L 437.09328 170.620558 
L 437.699268 139.076564 
L 438.305256 133.819232 
L 439.517232 180.028416 
L 440.12322 163.979718 
L 440.729208 169.513752 
L 441.335196 145.717405 
L 441.941184 161.766104 
L 442.547172 223.747285 
L 443.15316 146.824212 
L 443.759148 199.120834 
L 444.365136 137.693056 
L 444.971124 175.047786 
L 445.577112 165.639928 
L 446.1831 132.712425 
L 446.789088 141.56688 
L 447.395076 137.416354 
L 448.001064 164.533121 
L 448.607052 132.159022 
L 449.21304 135.479442 
L 449.819028 172.280769 
L 450.425016 178.091504 
L 451.031004 186.115854 
L 451.636992 131.328917 
L 452.24298 138.523161 
L 452.848968 173.940979 
L 453.454956 180.305118 
L 454.060944 180.028416 
L 454.666932 181.411925 
L 455.27292 164.533121 
L 455.878908 166.746735 
L 456.484896 163.703016 
L 457.090884 188.052766 
L 457.696872 190.543081 
L 458.30286 201.611149 
L 458.908848 205.208271 
L 459.514836 171.173962 
L 460.120824 146.54751 
L 460.726812 190.543081 
L 461.3328 167.023436 
L 461.938788 156.785473 
L 462.544776 168.960348 
L 463.150764 133.54253 
L 463.756752 141.56688 
L 464.36274 143.780493 
L 464.968728 159.829192 
L 465.574716 146.270809 
L 466.180704 175.324487 
L 466.786692 132.159022 
L 467.39268 183.348837 
L 467.998668 136.032846 
L 468.604656 159.55249 
L 469.210644 158.445683 
L 469.816632 152.081544 
L 470.42262 154.848561 
L 471.028608 130.498812 
L 471.634596 165.363226 
L 472.240584 156.508772 
L 472.846572 180.858521 
L 473.45256 135.20274 
L 474.058548 158.999087 
L 474.664536 168.960348 
L 475.270524 157.338877 
L 475.876512 165.916629 
L 476.4825 177.814803 
L 477.088488 155.125263 
L 477.694476 146.54751 
L 478.300464 162.596209 
L 478.906452 193.5868 
L 479.51244 188.052766 
L 480.118428 166.746735 
L 480.724416 180.305118 
L 481.330404 180.305118 
L 481.936392 175.877891 
L 482.54238 173.940979 
L 483.148368 195.800413 
L 483.754356 177.261399 
L 484.360344 179.475013 
L 484.966332 190.543081 
L 485.57232 192.756695 
L 486.178308 163.426314 
L 486.784296 167.023436 
L 487.390284 152.081544 
L 487.996272 145.440703 
L 488.60226 157.062175 
L 489.208248 164.256419 
L 489.814236 145.994107 
L 490.420224 168.406945 
L 491.026212 139.906669 
L 491.6322 185.009047 
L 492.238188 157.615578 
L 493.450164 193.310098 
L 494.056152 180.58182 
L 494.66214 144.8873 
L 495.268128 165.916629 
L 495.874116 163.149612 
L 496.480104 203.548061 
L 497.086092 176.984698 
L 497.69208 181.965328 
L 498.298068 131.88232 
L 498.904056 201.334447 
L 499.510044 203.271359 
L 500.116032 170.89726 
L 500.72202 149.867931 
L 501.328008 140.460073 
L 501.933996 168.683646 
L 502.539984 169.790453 
L 503.145972 208.25199 
L 503.75196 174.494382 
L 504.357948 162.596209 
L 504.963936 142.396985 
L 505.569924 157.338877 
L 506.175912 145.717405 
L 506.7819 157.615578 
L 507.387888 233.155143 
L 508.599864 154.848561 
L 509.205852 170.620558 
L 509.81184 194.970308 
L 510.417828 154.848561 
L 511.023816 162.596209 
L 511.629804 162.596209 
L 512.235792 156.508772 
L 512.84178 158.445683 
L 513.447768 177.814803 
L 514.659744 132.712425 
L 515.265732 191.649888 
L 515.87172 161.212701 
L 516.477708 193.033396 
L 517.083696 170.89726 
L 517.689684 197.737325 
L 518.295672 177.814803 
L 518.90166 189.712976 
L 519.507648 151.528141 
L 520.113636 167.300138 
L 520.719624 177.261399 
L 521.325612 163.149612 
L 521.9316 174.771084 
L 522.537588 179.751715 
L 523.143576 181.688626 
L 523.749564 187.776064 
L 524.355552 198.290729 
L 524.96154 173.110874 
L 525.567528 198.014027 
L 526.173516 189.712976 
L 526.779504 156.23207 
L 527.385492 155.125263 
L 527.99148 184.732345 
L 528.597468 175.324487 
L 529.203456 158.445683 
L 529.809444 132.712425 
L 530.415432 176.984698 
L 531.02142 192.756695 
L 531.627408 167.57684 
L 532.233396 189.436274 
L 533.445372 151.528141 
L 534.05136 166.746735 
L 534.657348 137.693056 
L 535.263336 172.55747 
L 535.869324 165.639928 
L 536.475312 145.717405 
L 537.0813 166.470033 
L 537.687288 155.125263 
L 538.293276 155.401965 
L 538.899264 154.295158 
L 540.717228 187.499362 
L 541.323216 150.698036 
L 541.929204 172.55747 
L 542.535192 175.324487 
L 543.14118 170.620558 
L 543.747168 171.450664 
L 544.353156 155.955368 
L 544.959144 160.105894 
L 545.565132 168.406945 
L 546.17112 169.513752 
L 546.777108 174.771084 
L 547.383096 184.178942 
L 547.989084 156.23207 
L 548.595072 156.508772 
L 549.20106 187.222661 
L 549.807048 148.761124 
L 550.413036 168.683646 
L 551.019024 200.781044 
L 551.625012 164.256419 
L 552.231 194.416905 
L 552.836988 158.722385 
L 553.442976 186.669257 
L 554.048964 148.761124 
L 554.654952 147.654317 
L 555.26094 131.328917 
L 555.866928 141.843581 
L 556.472916 164.809823 
L 557.078904 158.168982 
L 557.684892 132.989127 
L 558.29088 171.727365 
L 558.896868 177.538101 
L 559.502856 142.673686 
L 560.108844 138.246459 
L 560.714832 138.799863 
L 561.32082 116.387025 
L 561.926808 140.460073 
L 562.532796 134.372635 
L 563.138784 145.440703 
L 563.744772 112.236499 
L 564.35076 124.688076 
L 564.956748 156.23207 
L 565.562736 145.164002 
L 566.168724 145.717405 
L 566.774712 155.125263 
L 567.3807 105.042255 
L 567.986688 143.503792 
L 568.592676 128.008496 
L 569.198664 118.047235 
L 570.41064 183.348837 
L 571.016628 150.974738 
L 571.622616 153.741755 
L 572.228604 136.032846 
L 572.834592 177.261399 
L 573.44058 175.877891 
L 574.046568 149.591229 
L 574.652556 180.305118 
L 575.258544 184.455644 
L 575.864532 152.634948 
L 576.47052 191.926589 
L 577.076508 153.741755 
L 577.682496 139.076564 
L 578.288484 155.678666 
L 578.894472 175.601189 
L 579.50046 172.004067 
L 580.106448 138.246459 
L 580.712436 134.649337 
L 581.318424 148.207721 
L 581.924412 131.88232 
L 582.5304 129.668706 
L 583.136388 145.994107 
L 583.742376 138.246459 
L 584.348364 174.494382 
L 584.954352 144.333897 
L 585.56034 136.586249 
L 586.166328 146.54751 
L 586.772316 139.629968 
L 587.378304 146.270809 
L 587.984292 128.5619 
L 588.59028 126.071584 
L 589.196268 172.004067 
L 589.802256 118.323937 
L 590.408244 107.809272 
L 591.014232 116.387025 
L 591.62022 110.852991 
L 592.226208 130.498812 
L 592.832196 101.998536 
L 593.438184 116.663726 
L 594.044172 148.761124 
L 594.65016 141.013476 
L 595.256148 139.629968 
L 595.862136 130.775513 
L 596.468124 118.87734 
L 597.074112 123.027866 
L 598.286088 151.804843 
L 598.892076 102.828641 
L 599.498064 151.528141 
L 600.104052 79.8624 
L 600.71004 113.066604 
L 601.316028 124.411374 
L 601.922016 121.644357 
L 602.528004 108.085974 
L 603.133992 88.440153 
L 603.73998 116.663726 
L 604.345968 126.901689 
L 604.951956 118.87734 
L 605.557944 128.838601 
L 606.163932 98.954817 
L 606.76992 123.304567 
L 607.375908 118.87734 
L 607.981896 79.8624 
L 608.587884 105.595658 
L 609.193872 118.87734 
L 609.79986 122.19776 
L 610.405848 118.047235 
L 611.011836 92.590678 
L 611.617824 94.804292 
L 612.223812 122.751164 
L 612.8298 133.819232 
L 613.435788 131.328917 
L 614.041776 116.387025 
L 614.647764 86.779943 
L 615.253752 127.731795 
L 615.85974 120.260849 
L 616.465728 134.926039 
L 617.071716 141.56688 
L 618.283692 116.110323 
L 618.88968 137.693056 
L 619.495668 117.21713 
L 620.101656 131.052215 
L 620.707644 148.484422 
L 621.313632 138.799863 
L 621.91962 145.994107 
L 622.525608 120.53755 
L 623.131596 145.440703 
L 623.737584 123.581269 
L 624.343572 129.392005 
L 624.94956 156.785473 
L 625.555548 152.081544 
L 626.161536 138.246459 
L 626.767524 134.649337 
L 627.373512 156.508772 
L 627.9795 136.032846 
L 628.585488 152.911649 
L 629.191476 130.22211 
L 629.797464 153.188351 
L 630.403452 150.974738 
L 631.00944 147.931019 
L 631.615428 139.629968 
L 632.221416 157.89228 
L 632.827404 150.698036 
L 633.433392 159.829192 
L 634.03938 133.819232 
L 634.645368 115.55692 
L 635.251356 112.236499 
L 635.857344 130.22211 
L 636.463332 143.780493 
L 637.06932 161.212701 
L 637.675308 132.435723 
L 638.281296 148.484422 
L 638.887284 152.634948 
L 639.493272 148.207721 
L 640.09926 149.037826 
L 640.705248 154.018456 
L 641.311236 147.654317 
L 641.917224 162.319507 
L 642.523212 110.299587 
L 643.1292 110.852991 
L 643.735188 117.493832 
L 644.341176 167.300138 
L 644.947164 111.959797 
L 645.553152 122.19776 
L 646.15914 139.076564 
L 646.765128 141.843581 
L 647.371116 113.343306 
L 647.977104 133.54253 
L 648.583092 144.333897 
L 649.18908 141.290178 
L 649.795068 125.518181 
L 650.401056 118.600638 
L 651.613032 122.19776 
L 652.21902 134.649337 
L 652.825008 107.255869 
L 653.430996 161.766104 
L 654.036984 137.416354 
L 654.642972 154.018456 
L 655.24896 145.717405 
L 655.854948 121.921059 
L 656.460936 160.105894 
L 657.066924 136.862951 
L 657.672912 168.960348 
L 658.884888 124.411374 
L 659.490876 129.392005 
L 660.096864 140.183371 
L 660.702852 165.916629 
L 661.30884 119.707445 
L 661.914828 154.295158 
L 662.520816 154.018456 
L 663.126804 157.89228 
L 663.732792 127.731795 
L 664.33878 155.125263 
L 664.944768 144.333897 
L 665.550756 153.465053 
L 666.156744 101.168431 
L 666.762732 152.911649 
L 667.36872 117.21713 
L 667.974708 131.052215 
L 668.580696 122.19776 
L 669.186684 134.926039 
L 670.39866 146.54751 
L 671.004648 139.076564 
L 671.610636 129.668706 
L 672.216624 134.372635 
L 672.822612 104.765553 
L 674.034588 150.144632 
L 674.640576 125.241479 
L 675.246564 150.698036 
L 675.852552 157.338877 
L 676.45854 145.440703 
L 677.064528 145.994107 
L 677.670516 146.270809 
L 678.276504 155.678666 
L 678.882492 143.503792 
L 679.48848 150.698036 
L 680.094468 126.348286 
L 680.700456 142.673686 
L 681.306444 126.901689 
L 681.912432 120.260849 
L 682.51842 131.88232 
L 683.124408 129.392005 
L 683.730396 109.469482 
L 684.336384 131.052215 
L 684.942372 134.372635 
L 685.54836 146.824212 
L 686.760336 122.474462 
L 687.366324 136.862951 
L 687.972312 132.159022 
L 688.5783 170.067155 
L 689.184288 135.479442 
L 689.790276 150.421334 
L 690.396264 140.460073 
L 691.002252 128.008496 
L 691.60824 149.314527 
L 692.214228 88.993556 
L 692.820216 125.518181 
L 693.426204 117.770533 
L 694.032192 157.062175 
L 694.63818 161.489402 
L 695.244168 152.081544 
L 695.850156 154.295158 
L 696.456144 146.270809 
L 697.062132 121.090954 
L 697.66812 130.775513 
L 698.274108 129.115303 
L 698.880096 145.994107 
L 699.486084 128.285198 
L 700.092072 118.047235 
L 700.69806 119.984147 
L 701.304048 132.435723 
L 701.910036 162.596209 
L 702.516024 165.086524 
L 703.122012 156.785473 
L 703.728 114.726815 
L 703.728 114.726815 
" clip-path="url(#p098eab48c2)" style="fill: none; stroke: #4a738c; stroke-opacity: 0.9; stroke-width: 1.5; stroke-linecap: square"/>
   </g>
   <g id="patch_3">
    <path d="M 97.74 453.6864 
L 97.74 61.1712 
" style="fill: none; stroke: #000000; stroke-width: 0.8; stroke-linejoin: miter; stroke-linecap: square"/>
   </g>
   <g id="patch_4">
    <path d="M 703.728 453.6864 
L 703.728 61.1712 
" style="fill: none; stroke: #000000; stroke-width: 0.8; stroke-linejoin: miter; stroke-linecap: square"/>
   </g>
   <g id="patch_5">
    <path d="M 97.74 453.6864 
L 703.728 453.6864 
" style="fill: none; stroke: #000000; stroke-width: 0.8; stroke-linejoin: miter; stroke-linecap: square"/>
   </g>
   <g id="patch_6">
    <path d="M 97.74 61.1712 
L 703.728 61.1712 
" style="fill: none; stroke: #000000; stroke-width: 0.8; stroke-linejoin: miter; stroke-linecap: square"/>
   </g>
   <g id="legend_1">
    <g id="patch_7">
     <path d="M 343.038687 40.141683 
L 458.429312 40.141683 
Q 460.429312 40.141683 460.429312 38.141683 
L 460.429312 28.463558 
Q 460.429312 26.463558 458.429312 26.463558 
L 343.038687 26.463558 
Q 341.038687 26.463558 341.038687 28.463558 
L 341.038687 38.141683 
Q 341.038687 40.141683 343.038687 40.141683 
z
" style="fill: #ffffff; opacity: 0.8; stroke: #cccccc; stroke-linejoin: miter"/>
    </g>
    <g id="line2d_17">
     <path d="M 343.038687 32.561996 
L 348.038687 32.561996 
L 353.038687 32.561996 
" style="fill: none; stroke: #4a738c; stroke-opacity: 0.9; stroke-width: 8; stroke-linecap: square"/>
    </g>
    <g id="text_18">
     <!-- C$\alpha$ -->
     <g transform="translate(355.038687 36.061996)scale(0.1 -0.1)">
      <defs>
       <path id="DejaVuSans-43" d="M 4122 4306 
L 4122 3641 
Q 3803 3938 3442 4084 
Q 3081 4231 2675 4231 
Q 1875 4231 1450 3742 
Q 1025 3253 1025 2328 
Q 1025 1406 1450 917 
Q 1875 428 2675 428 
Q 3081 428 3442 575 
Q 3803 722 4122 1019 
L 4122 359 
Q 3791 134 3420 21 
Q 3050 -91 2638 -91 
Q 1578 -91 968 557 
Q 359 1206 359 2328 
Q 359 3453 968 4101 
Q 1578 4750 2638 4750 
Q 3056 4750 3426 4639 
Q 3797 4528 4122 4306 
z
" transform="scale(0.015625)"/>
       <path id="STIXNonUnicode-Italic-e1d8" d="M 3942 2899 
L 2918 1427 
Q 2931 781 2982 570 
Q 3021 390 3270 390 
L 3245 294 
L 2989 -64 
Q 2650 -64 2528 105 
Q 2406 275 2381 595 
Q 1882 -64 1184 -64 
Q 774 -64 537 214 
Q 301 493 301 960 
Q 301 1709 800 2336 
Q 1299 2963 1946 2963 
Q 2739 2963 2880 2176 
L 3392 2899 
L 3942 2899 
z
M 2406 1715 
Q 2406 2093 2236 2301 
Q 2067 2509 1811 2509 
Q 1478 2509 1145 2109 
Q 813 1709 813 1062 
Q 813 749 953 569 
Q 1094 390 1318 390 
Q 1587 390 1878 652 
Q 2170 915 2381 1434 
Q 2406 1568 2406 1715 
z
" transform="scale(0.015625)"/>
      </defs>
      <use xlink:href="#DejaVuSans-43" transform="translate(0 0.78125)"/>
      <use xlink:href="#STIXNonUnicode-Italic-e1d8" transform="translate(69.824219 0.78125)"/>
     </g>
    </g>
    <g id="line2d_18">
     <path d="M 371.938687 32.561996 
L 376.938687 32.561996 
L 381.938687 32.561996 
" style="fill: none; stroke: #a22c51; stroke-opacity: 0.9; stroke-width: 8; stroke-linecap: square"/>
    </g>
    <g id="text_19">
     <!-- (Lig) fit on Prot -->
     <g transform="translate(383.938687 36.061996)scale(0.1 -0.1)">
      <defs>
       <path id="DejaVuSans-4c" d="M 628 4666 
L 1259 4666 
L 1259 531 
L 3531 531 
L 3531 0 
L 628 0 
L 628 4666 
z
" transform="scale(0.015625)"/>
       <path id="DejaVuSans-67" d="M 2906 1791 
Q 2906 2416 2648 2759 
Q 2391 3103 1925 3103 
Q 1463 3103 1205 2759 
Q 947 2416 947 1791 
Q 947 1169 1205 825 
Q 1463 481 1925 481 
Q 2391 481 2648 825 
Q 2906 1169 2906 1791 
z
M 3481 434 
Q 3481 -459 3084 -895 
Q 2688 -1331 1869 -1331 
Q 1566 -1331 1297 -1286 
Q 1028 -1241 775 -1147 
L 775 -588 
Q 1028 -725 1275 -790 
Q 1522 -856 1778 -856 
Q 2344 -856 2625 -561 
Q 2906 -266 2906 331 
L 2906 616 
Q 2728 306 2450 153 
Q 2172 0 1784 0 
Q 1141 0 747 490 
Q 353 981 353 1791 
Q 353 2603 747 3093 
Q 1141 3584 1784 3584 
Q 2172 3584 2450 3431 
Q 2728 3278 2906 2969 
L 2906 3500 
L 3481 3500 
L 3481 434 
z
" transform="scale(0.015625)"/>
       <path id="DejaVuSans-66" d="M 2375 4863 
L 2375 4384 
L 1825 4384 
Q 1516 4384 1395 4259 
Q 1275 4134 1275 3809 
L 1275 3500 
L 2222 3500 
L 2222 3053 
L 1275 3053 
L 1275 0 
L 697 0 
L 697 3053 
L 147 3053 
L 147 3500 
L 697 3500 
L 697 3744 
Q 697 4328 969 4595 
Q 1241 4863 1831 4863 
L 2375 4863 
z
" transform="scale(0.015625)"/>
      </defs>
      <use xlink:href="#DejaVuSans-28"/>
      <use xlink:href="#DejaVuSans-4c" x="39.013672"/>
      <use xlink:href="#DejaVuSans-69" x="94.726562"/>
      <use xlink:href="#DejaVuSans-67" x="122.509766"/>
      <use xlink:href="#DejaVuSans-29" x="185.986328"/>
      <use xlink:href="#DejaVuSans-20" x="225"/>
      <use xlink:href="#DejaVuSans-66" x="256.787109"/>
      <use xlink:href="#DejaVuSans-69" x="291.992188"/>
      <use xlink:href="#DejaVuSans-74" x="319.775391"/>
      <use xlink:href="#DejaVuSans-20" x="358.984375"/>
      <use xlink:href="#DejaVuSans-6f" x="390.771484"/>
      <use xlink:href="#DejaVuSans-6e" x="451.953125"/>
      <use xlink:href="#DejaVuSans-20" x="515.332031"/>
      <use xlink:href="#DejaVuSans-50" x="547.119141"/>
      <use xlink:href="#DejaVuSans-72" x="605.671875"/>
      <use xlink:href="#DejaVuSans-6f" x="644.535156"/>
      <use xlink:href="#DejaVuSans-74" x="705.716797"/>
     </g>
    </g>
   </g>
  </g>
  <g id="axes_2">
   <g id="matplotlib.axis_3">
    <g id="ytick_10">
     <g id="line2d_19">
      <defs>
       <path id="md74ddd2ca0" d="M 0 0 
L 3.5 0 
" style="stroke: #000000; stroke-width: 0.8"/>
      </defs>
      <g>
       <use xlink:href="#md74ddd2ca0" x="703.728" y="408.042444" style="stroke: #000000; stroke-width: 0.8"/>
      </g>
     </g>
     <g id="text_20">
      <!-- 0.3 -->
      <g style="fill: #a22c51" transform="translate(710.728 411.841663)scale(0.1 -0.1)">
       <use xlink:href="#DejaVuSans-30"/>
       <use xlink:href="#DejaVuSans-2e" x="63.623047"/>
       <use xlink:href="#DejaVuSans-33" x="95.410156"/>
      </g>
     </g>
    </g>
    <g id="ytick_11">
     <g id="line2d_20">
      <g>
       <use xlink:href="#md74ddd2ca0" x="703.728" y="362.398488" style="stroke: #000000; stroke-width: 0.8"/>
      </g>
     </g>
     <g id="text_21">
      <!-- 0.6 -->
      <g style="fill: #a22c51" transform="translate(710.728 366.197707)scale(0.1 -0.1)">
       <use xlink:href="#DejaVuSans-30"/>
       <use xlink:href="#DejaVuSans-2e" x="63.623047"/>
       <use xlink:href="#DejaVuSans-36" x="95.410156"/>
      </g>
     </g>
    </g>
    <g id="ytick_12">
     <g id="line2d_21">
      <g>
       <use xlink:href="#md74ddd2ca0" x="703.728" y="316.754532" style="stroke: #000000; stroke-width: 0.8"/>
      </g>
     </g>
     <g id="text_22">
      <!-- 0.9 -->
      <g style="fill: #a22c51" transform="translate(710.728 320.553751)scale(0.1 -0.1)">
       <use xlink:href="#DejaVuSans-30"/>
       <use xlink:href="#DejaVuSans-2e" x="63.623047"/>
       <use xlink:href="#DejaVuSans-39" x="95.410156"/>
      </g>
     </g>
    </g>
    <g id="ytick_13">
     <g id="line2d_22">
      <g>
       <use xlink:href="#md74ddd2ca0" x="703.728" y="271.110576" style="stroke: #000000; stroke-width: 0.8"/>
      </g>
     </g>
     <g id="text_23">
      <!-- 1.2 -->
      <g style="fill: #a22c51" transform="translate(710.728 274.909795)scale(0.1 -0.1)">
       <use xlink:href="#DejaVuSans-31"/>
       <use xlink:href="#DejaVuSans-2e" x="63.623047"/>
       <use xlink:href="#DejaVuSans-32" x="95.410156"/>
      </g>
     </g>
    </g>
    <g id="ytick_14">
     <g id="line2d_23">
      <g>
       <use xlink:href="#md74ddd2ca0" x="703.728" y="225.46662" style="stroke: #000000; stroke-width: 0.8"/>
      </g>
     </g>
     <g id="text_24">
      <!-- 1.5 -->
      <g style="fill: #a22c51" transform="translate(710.728 229.265839)scale(0.1 -0.1)">
       <use xlink:href="#DejaVuSans-31"/>
       <use xlink:href="#DejaVuSans-2e" x="63.623047"/>
       <use xlink:href="#DejaVuSans-35" x="95.410156"/>
      </g>
     </g>
    </g>
    <g id="ytick_15">
     <g id="line2d_24">
      <g>
       <use xlink:href="#md74ddd2ca0" x="703.728" y="179.822664" style="stroke: #000000; stroke-width: 0.8"/>
      </g>
     </g>
     <g id="text_25">
      <!-- 1.8 -->
      <g style="fill: #a22c51" transform="translate(710.728 183.621882)scale(0.1 -0.1)">
       <use xlink:href="#DejaVuSans-31"/>
       <use xlink:href="#DejaVuSans-2e" x="63.623047"/>
       <use xlink:href="#DejaVuSans-38" x="95.410156"/>
      </g>
     </g>
    </g>
    <g id="ytick_16">
     <g id="line2d_25">
      <g>
       <use xlink:href="#md74ddd2ca0" x="703.728" y="134.178708" style="stroke: #000000; stroke-width: 0.8"/>
      </g>
     </g>
     <g id="text_26">
      <!-- 2.1 -->
      <g style="fill: #a22c51" transform="translate(710.728 137.977926)scale(0.1 -0.1)">
       <use xlink:href="#DejaVuSans-32"/>
       <use xlink:href="#DejaVuSans-2e" x="63.623047"/>
       <use xlink:href="#DejaVuSans-31" x="95.410156"/>
      </g>
     </g>
    </g>
    <g id="ytick_17">
     <g id="line2d_26">
      <g>
       <use xlink:href="#md74ddd2ca0" x="703.728" y="88.534752" style="stroke: #000000; stroke-width: 0.8"/>
      </g>
     </g>
     <g id="text_27">
      <!-- 2.4 -->
      <g style="fill: #a22c51" transform="translate(710.728 92.33397)scale(0.1 -0.1)">
       <use xlink:href="#DejaVuSans-32"/>
       <use xlink:href="#DejaVuSans-2e" x="63.623047"/>
       <use xlink:href="#DejaVuSans-34" x="95.410156"/>
      </g>
     </g>
    </g>
    <g id="text_28">
     <!-- Ligand RMSD ($\AA$) -->
     <g style="fill: #a22c51" transform="translate(733.271125 190.6288)rotate(-270)scale(0.16 -0.16)">
      <defs>
       <path id="DejaVuSans-61" d="M 2194 1759 
Q 1497 1759 1228 1600 
Q 959 1441 959 1056 
Q 959 750 1161 570 
Q 1363 391 1709 391 
Q 2188 391 2477 730 
Q 2766 1069 2766 1631 
L 2766 1759 
L 2194 1759 
z
M 3341 1997 
L 3341 0 
L 2766 0 
L 2766 531 
Q 2569 213 2275 61 
Q 1981 -91 1556 -91 
Q 1019 -91 701 211 
Q 384 513 384 1019 
Q 384 1609 779 1909 
Q 1175 2209 1959 2209 
L 2766 2209 
L 2766 2266 
Q 2766 2663 2505 2880 
Q 2244 3097 1772 3097 
Q 1472 3097 1187 3025 
Q 903 2953 641 2809 
L 641 3341 
Q 956 3463 1253 3523 
Q 1550 3584 1831 3584 
Q 2591 3584 2966 3190 
Q 3341 2797 3341 1997 
z
" transform="scale(0.015625)"/>
       <path id="DejaVuSans-64" d="M 2906 2969 
L 2906 4863 
L 3481 4863 
L 3481 0 
L 2906 0 
L 2906 525 
Q 2725 213 2448 61 
Q 2172 -91 1784 -91 
Q 1150 -91 751 415 
Q 353 922 353 1747 
Q 353 2572 751 3078 
Q 1150 3584 1784 3584 
Q 2172 3584 2448 3432 
Q 2725 3281 2906 2969 
z
M 947 1747 
Q 947 1113 1208 752 
Q 1469 391 1925 391 
Q 2381 391 2643 752 
Q 2906 1113 2906 1747 
Q 2906 2381 2643 2742 
Q 2381 3103 1925 3103 
Q 1469 3103 1208 2742 
Q 947 2381 947 1747 
z
" transform="scale(0.015625)"/>
      </defs>
      <use xlink:href="#DejaVuSans-4c" transform="translate(0 0.296875)"/>
      <use xlink:href="#DejaVuSans-69" transform="translate(55.712891 0.296875)"/>
      <use xlink:href="#DejaVuSans-67" transform="translate(83.496094 0.296875)"/>
      <use xlink:href="#DejaVuSans-61" transform="translate(146.972656 0.296875)"/>
      <use xlink:href="#DejaVuSans-6e" transform="translate(208.251953 0.296875)"/>
      <use xlink:href="#DejaVuSans-64" transform="translate(271.630859 0.296875)"/>
      <use xlink:href="#DejaVuSans-20" transform="translate(335.107422 0.296875)"/>
      <use xlink:href="#DejaVuSans-52" transform="translate(366.894531 0.296875)"/>
      <use xlink:href="#DejaVuSans-4d" transform="translate(436.376953 0.296875)"/>
      <use xlink:href="#DejaVuSans-53" transform="translate(522.65625 0.296875)"/>
      <use xlink:href="#DejaVuSans-44" transform="translate(586.132812 0.296875)"/>
      <use xlink:href="#DejaVuSans-20" transform="translate(663.134766 0.296875)"/>
      <use xlink:href="#DejaVuSans-28" transform="translate(694.921875 0.296875)"/>
      <use xlink:href="#STIXGeneral-Italic-c5" transform="translate(733.935547 0.296875)"/>
      <use xlink:href="#DejaVuSans-29" transform="translate(795.035538 0.296875)"/>
     </g>
    </g>
   </g>
   <g id="line2d_27">
    <path d="M 97.74 453.6864 
L 98.345988 313.863748 
L 98.951976 303.974224 
L 99.557964 303.974224 
L 100.163952 277.652876 
L 100.76994 289.216012 
L 101.375928 321.623221 
L 101.981916 305.647836 
L 103.193892 254.678752 
L 103.79988 322.07966 
L 104.405868 235.660437 
L 105.011856 216.794268 
L 105.617844 215.881389 
L 106.223832 290.58533 
L 106.82982 332.425623 
L 107.435808 220.750078 
L 108.041796 313.103015 
L 108.647784 311.885843 
L 109.253772 319.493169 
L 109.85976 279.478634 
L 110.465748 298.649096 
L 111.071736 219.989345 
L 111.677724 258.178122 
L 112.8897 216.642122 
L 113.495688 193.820144 
L 114.101676 211.46914 
L 114.707664 193.211558 
L 115.313652 322.07966 
L 115.91964 259.699587 
L 116.525628 298.953389 
L 117.131616 243.267763 
L 117.737604 270.654136 
L 118.343592 252.852993 
L 118.94958 225.01018 
L 119.555568 259.243147 
L 120.161556 196.254488 
L 120.767544 335.772847 
L 121.373532 281.152246 
L 121.97952 302.452759 
L 123.191496 254.983045 
L 123.797484 344.597345 
L 124.403472 283.58659 
L 125.00946 252.5487 
L 125.615448 274.153506 
L 126.221436 272.479895 
L 126.827424 315.08092 
L 127.433412 237.334048 
L 128.0394 301.692026 
L 128.645388 250.570796 
L 129.251376 281.456539 
L 129.857364 251.179382 
L 130.463352 212.229873 
L 131.06934 254.526605 
L 131.675328 279.782927 
L 132.281316 217.707147 
L 132.887304 189.407895 
L 133.493292 150.001946 
L 134.09928 290.128891 
L 134.705268 228.50955 
L 135.917244 303.517785 
L 136.523232 286.325228 
L 137.12922 222.727982 
L 137.735208 343.380173 
L 138.341196 303.365638 
L 138.947184 251.331528 
L 139.553172 240.224832 
L 140.15916 261.525345 
L 140.765148 275.370678 
L 141.371136 239.00766 
L 141.977124 311.277257 
L 142.583112 298.953389 
L 143.1891 235.356144 
L 143.795088 298.649096 
L 144.401076 177.236173 
L 145.007064 259.395294 
L 145.613052 228.205257 
L 146.21904 251.179382 
L 146.825028 304.734957 
L 147.431016 259.395294 
L 148.037004 306.865008 
L 148.642992 268.219792 
L 149.24898 246.614986 
L 149.854968 212.077726 
L 150.460956 270.654136 
L 151.066944 192.450825 
L 151.672932 270.654136 
L 152.27892 293.628261 
L 152.884908 279.326488 
L 153.490896 210.860554 
L 154.096884 260.156026 
L 154.702872 196.558781 
L 155.30886 267.611206 
L 155.914848 238.703367 
L 157.126824 270.04555 
L 157.732812 248.136451 
L 158.944788 350.378913 
L 159.550776 292.411089 
L 160.156764 260.308173 
L 160.762752 252.092261 
L 161.36874 256.200217 
L 161.974728 277.50073 
L 162.580716 306.865008 
L 163.186704 266.698327 
L 163.792692 286.325228 
L 164.39868 199.601711 
L 165.004668 280.847953 
L 165.610656 195.189462 
L 166.216644 240.072686 
L 166.822632 212.534166 
L 167.42862 250.266503 
L 168.034608 253.461579 
L 168.640596 275.522825 
L 169.246584 250.722942 
L 169.852572 237.029755 
L 170.45856 214.055631 
L 171.064548 196.406634 
L 171.670536 229.422429 
L 172.276524 282.673711 
L 172.882512 279.782927 
L 173.4885 257.265242 
L 174.094488 245.854253 
L 174.700476 296.975484 
L 175.306464 279.326488 
L 175.912452 240.833418 
L 176.51844 273.849213 
L 177.124428 235.356144 
L 177.730416 259.851733 
L 178.336404 294.388993 
L 178.942392 301.844173 
L 179.54838 233.682532 
L 180.154368 276.587851 
L 180.760356 262.742517 
L 181.366344 291.802503 
L 181.972332 266.089741 
L 182.57832 298.04051 
L 183.184308 232.161067 
L 183.790296 267.763352 
L 184.396284 244.332788 
L 185.002272 270.349843 
L 185.60826 279.935074 
L 186.214248 258.330268 
L 186.820236 276.587851 
L 187.426224 276.587851 
L 188.032212 323.448979 
L 188.6382 254.678752 
L 189.244188 246.158547 
L 189.850176 247.984305 
L 190.456164 245.702107 
L 191.062152 280.087221 
L 191.66814 271.262722 
L 192.274128 312.03799 
L 193.486104 258.482415 
L 194.092092 259.243147 
L 194.69808 225.618766 
L 195.304068 291.802503 
L 195.910056 304.58281 
L 196.516044 223.184422 
L 197.122032 282.065125 
L 197.72802 294.236847 
L 198.334008 274.305653 
L 198.939996 220.597931 
L 199.545984 221.206517 
L 200.75796 290.58533 
L 201.363948 244.028495 
L 201.969936 277.348583 
L 202.575924 231.400334 
L 203.181912 358.746971 
L 203.7879 260.460319 
L 204.393888 307.169301 
L 204.999876 253.461579 
L 205.605864 273.240627 
L 206.211852 309.299352 
L 206.81784 266.698327 
L 207.423828 267.459059 
L 208.029816 276.131411 
L 208.635804 270.04555 
L 209.241792 261.221052 
L 209.84778 275.979264 
L 210.453768 235.203997 
L 211.059756 272.175601 
L 211.665744 290.737477 
L 212.271732 218.924319 
L 213.483708 336.533579 
L 214.089696 279.935074 
L 214.695684 283.282297 
L 215.301672 299.714122 
L 215.90766 280.087221 
L 216.513648 274.00136 
L 217.119636 247.527865 
L 217.725624 315.08092 
L 218.331612 237.334048 
L 218.9376 338.967924 
L 219.543588 235.660437 
L 220.149576 285.716642 
L 220.755564 218.163587 
L 221.361552 216.642122 
L 221.96754 292.106796 
L 222.573528 305.952129 
L 223.179516 259.243147 
L 223.785504 266.089741 
L 224.391492 266.54618 
L 224.99748 296.671191 
L 225.603468 217.555001 
L 226.209456 202.340349 
L 226.815444 301.08344 
L 227.421432 205.687572 
L 228.02742 318.123851 
L 228.633408 289.672451 
L 229.239396 306.560715 
L 229.845384 286.173081 
L 230.451372 315.08092 
L 231.05736 301.996319 
L 231.663348 252.5487 
L 232.269336 297.736217 
L 232.875324 315.841653 
L 233.481312 235.812583 
L 234.0873 324.057565 
L 235.299276 88.991191 
L 235.905264 304.887103 
L 236.511252 178.757638 
L 237.11724 163.238693 
L 237.723228 205.839719 
L 238.329216 275.218532 
L 238.935204 256.04807 
L 239.541192 208.882649 
L 240.14718 287.08596 
L 240.753168 286.477374 
L 241.359156 226.835938 
L 241.965144 230.791748 
L 242.571132 233.530385 
L 243.17712 195.645902 
L 243.783108 244.789228 
L 244.389096 222.423689 
L 244.995084 322.231807 
L 245.601072 268.524085 
L 246.20706 302.148466 
L 246.813048 304.278517 
L 247.419036 303.517785 
L 248.025024 210.404114 
L 248.631012 290.433184 
L 249.237 319.493169 
L 249.842988 300.322708 
L 250.448976 207.209037 
L 251.054964 177.692612 
L 251.660952 227.748818 
L 252.26694 234.595411 
L 252.872928 244.180642 
L 253.478916 236.421169 
L 254.084904 209.034796 
L 254.690892 236.573316 
L 255.29688 287.238107 
L 255.902868 288.150986 
L 256.508856 303.365638 
L 257.114844 371.222986 
L 257.720832 272.327748 
L 258.32682 266.394034 
L 258.932808 234.443264 
L 259.538796 247.832158 
L 260.144784 293.171821 
L 260.750772 254.526605 
L 261.35676 244.789228 
L 261.962748 298.649096 
L 263.174724 238.551221 
L 263.780712 173.128217 
L 264.3867 234.747558 
L 264.992688 221.96725 
L 265.598676 233.073946 
L 266.204664 278.870048 
L 266.810652 271.414869 
L 267.41664 255.287338 
L 268.022628 283.890884 
L 268.628616 272.175601 
L 269.234604 200.51459 
L 269.840592 210.556261 
L 270.44658 270.349843 
L 271.052568 266.089741 
L 271.658556 218.772173 
L 272.264544 244.637081 
L 272.870532 318.884583 
L 273.47652 191.690092 
L 274.082508 295.606166 
L 274.688496 235.203997 
L 275.294484 247.375719 
L 275.900472 215.577096 
L 276.50646 268.067645 
L 277.112448 330.904158 
L 277.718436 291.04177 
L 278.324424 297.127631 
L 278.930412 298.953389 
L 279.5364 280.695807 
L 280.142388 285.716642 
L 280.748376 255.439484 
L 281.354364 256.960949 
L 281.960352 286.781667 
L 282.56634 298.649096 
L 283.172328 292.715382 
L 283.778316 341.554415 
L 284.384304 291.49821 
L 284.990292 290.433184 
L 285.59628 281.152246 
L 286.202268 265.481155 
L 286.808256 219.837199 
L 287.414244 152.284144 
L 288.020232 251.787968 
L 288.62622 291.04177 
L 289.232208 233.834678 
L 289.838196 278.261462 
L 290.444184 259.243147 
L 291.050172 293.932554 
L 291.65616 318.58029 
L 292.262148 309.147206 
L 292.868136 260.460319 
L 293.474124 242.811323 
L 294.080112 281.304393 
L 294.6861 233.226092 
L 295.292088 318.732437 
L 295.898076 289.368158 
L 296.504064 222.271543 
L 297.110052 256.352363 
L 298.322028 246.158547 
L 298.928016 286.933814 
L 299.534004 313.863748 
L 300.139992 247.223572 
L 300.74598 247.375719 
L 301.351968 301.53988 
L 301.957956 247.071426 
L 302.563944 272.784188 
L 303.169932 241.442004 
L 303.77592 301.387733 
L 304.381908 215.729242 
L 304.987896 255.591631 
L 305.593884 314.320188 
L 306.199872 246.310693 
L 306.80586 251.635821 
L 307.411848 227.140232 
L 308.017836 317.819558 
L 308.623824 323.753272 
L 309.229812 251.331528 
L 309.8358 235.660437 
L 310.441788 294.845433 
L 311.047776 285.108056 
L 311.653764 250.114356 
L 312.259752 190.625067 
L 313.471728 305.343543 
L 314.077716 300.931294 
L 314.683704 318.428144 
L 315.289692 314.776627 
L 315.89568 260.00388 
L 316.501668 256.04807 
L 317.107656 293.476114 
L 317.713644 262.894664 
L 318.319632 220.445785 
L 318.92562 265.481155 
L 319.531608 340.793682 
L 320.137596 317.515264 
L 320.743584 224.705887 
L 321.349572 260.156026 
L 321.95556 272.175601 
L 322.561548 193.820144 
L 323.167536 298.344803 
L 323.773524 266.850473 
L 324.379512 277.652876 
L 324.9855 236.421169 
L 325.591488 268.371938 
L 326.197476 269.132671 
L 326.803464 194.885169 
L 327.409452 224.705887 
L 328.01544 292.106796 
L 328.621428 270.349843 
L 329.833404 300.170561 
L 330.439392 298.801242 
L 331.04538 235.812583 
L 331.651368 264.263982 
L 332.257356 188.951455 
L 332.863344 269.436964 
L 334.07532 205.687572 
L 334.681308 219.837199 
L 335.287296 282.673711 
L 335.893284 208.274063 
L 336.499272 228.357404 
L 337.10526 267.154766 
L 337.711248 217.098561 
L 338.317236 268.524085 
L 338.923224 253.461579 
L 339.529212 254.983045 
L 340.1352 277.957169 
L 340.741188 258.330268 
L 341.347176 243.572056 
L 341.953164 253.918019 
L 342.559152 244.789228 
L 343.16514 194.580876 
L 343.771128 304.278517 
L 344.377116 263.655396 
L 344.983104 280.54366 
L 345.589092 252.5487 
L 346.19508 281.760832 
L 346.801068 332.729916 
L 347.407056 250.266503 
L 348.013044 204.92684 
L 348.619032 263.655396 
L 349.22502 247.375719 
L 349.831008 282.065125 
L 350.436996 202.492495 
L 351.042984 269.436964 
L 351.648972 213.294898 
L 352.25496 263.198957 
L 352.860948 215.272803 
L 353.466936 131.44007 
L 354.072924 232.921799 
L 354.678912 283.130151 
L 355.2849 308.08218 
L 355.890888 277.04429 
L 356.496876 254.222312 
L 357.102864 298.649096 
L 357.708852 249.96221 
L 358.31484 238.551221 
L 358.920828 258.786708 
L 359.526816 295.149726 
L 360.132804 317.667411 
L 360.738792 280.54366 
L 361.34478 293.171821 
L 361.950768 296.671191 
L 362.556756 231.096041 
L 363.162744 272.023455 
L 363.768732 280.847953 
L 364.37472 285.868788 
L 364.980708 225.923059 
L 365.586696 221.51081 
L 366.192684 109.074532 
L 366.798672 121.85484 
L 367.40466 250.875089 
L 368.010648 239.4641 
L 368.616636 300.474854 
L 369.828612 242.659177 
L 370.4346 276.739997 
L 371.040588 287.694547 
L 371.646576 316.145946 
L 372.252564 285.108056 
L 372.858552 303.061345 
L 373.46454 304.887103 
L 374.070528 276.435704 
L 374.676516 270.806283 
L 375.282504 311.429404 
L 375.888492 328.926253 
L 376.49448 330.295572 
L 377.100468 295.454019 
L 377.706456 320.710341 
L 378.312444 293.476114 
L 378.918432 310.060085 
L 379.52442 250.722942 
L 380.130408 311.58155 
L 380.736396 238.399074 
L 381.342384 251.331528 
L 381.948372 291.49821 
L 382.55436 219.989345 
L 383.160348 286.781667 
L 383.766336 272.936334 
L 384.372324 269.741257 
L 384.978312 339.272217 
L 385.5843 287.99884 
L 386.190288 289.216012 
L 386.796276 176.779733 
L 387.402264 325.12259 
L 388.008252 362.398488 
L 388.61424 235.203997 
L 389.220228 187.734283 
L 389.826216 263.198957 
L 390.432204 253.613726 
L 391.038192 215.120656 
L 391.64418 203.253228 
L 392.250168 308.842913 
L 392.856156 242.659177 
L 393.462144 256.656656 
L 394.068132 284.803763 
L 394.67412 233.226092 
L 395.280108 221.51081 
L 395.886096 275.370678 
L 396.492084 231.096041 
L 397.70406 337.902898 
L 398.310048 208.274063 
L 399.522024 269.284818 
L 400.128012 323.448979 
L 400.734 235.50829 
L 401.339988 238.246927 
L 401.945976 276.739997 
L 402.551964 258.025975 
L 403.157952 266.850473 
L 403.76394 270.197697 
L 404.369928 269.589111 
L 404.975916 222.880129 
L 405.581904 288.303133 
L 406.187892 214.816363 
L 406.79388 253.157286 
L 407.399868 308.386473 
L 408.005856 284.04303 
L 408.611844 222.880129 
L 409.217832 294.54114 
L 409.82382 206.752598 
L 410.429808 291.650356 
L 411.035796 302.757052 
L 411.641784 311.58155 
L 412.85376 229.118136 
L 413.459748 307.930034 
L 414.065736 315.993799 
L 414.671724 295.301873 
L 415.277712 281.152246 
L 415.8837 232.769653 
L 416.489688 314.928774 
L 417.095676 183.93062 
L 417.701664 213.903484 
L 418.91364 302.148466 
L 419.519628 222.880129 
L 420.125616 254.983045 
L 420.731604 279.478634 
L 421.337592 225.618766 
L 421.94358 203.405374 
L 422.549568 287.846693 
L 423.155556 331.664891 
L 423.761544 310.972964 
L 424.367532 221.054371 
L 424.97352 228.96599 
L 425.579508 261.525345 
L 426.791484 221.206517 
L 427.397472 216.794268 
L 428.00346 258.634561 
L 428.609448 284.04303 
L 429.215436 228.205257 
L 429.821424 239.311953 
L 430.427412 352.813257 
L 431.0334 232.00892 
L 431.639388 291.346063 
L 432.851364 181.952715 
L 433.457352 274.457799 
L 434.06334 181.800568 
L 434.669328 170.998166 
L 435.275316 207.665477 
L 435.881304 231.400334 
L 436.487292 228.661697 
L 437.09328 276.283558 
L 437.699268 274.609946 
L 438.305256 277.196437 
L 438.911244 228.96599 
L 439.517232 229.118136 
L 440.12322 260.916759 
L 440.729208 219.380759 
L 441.335196 304.430664 
L 441.941184 256.50451 
L 442.547172 223.945155 
L 443.15316 251.635821 
L 443.759148 195.037316 
L 444.365136 256.960949 
L 444.971124 259.699587 
L 445.577112 214.055631 
L 446.1831 292.563235 
L 446.789088 237.181902 
L 447.395076 320.406048 
L 448.001064 264.568275 
L 448.607052 312.798722 
L 449.21304 267.00262 
L 449.819028 240.681272 
L 450.425016 311.429404 
L 451.031004 199.145272 
L 451.636992 331.817037 
L 452.24298 210.556261 
L 453.454956 301.08344 
L 454.060944 264.872568 
L 454.666932 273.088481 
L 455.27292 247.375719 
L 455.878908 265.329008 
L 456.484896 299.561975 
L 457.090884 273.54492 
L 457.696872 273.697067 
L 458.30286 290.889623 
L 458.908848 278.261462 
L 459.514836 261.221052 
L 460.120824 249.96221 
L 460.726812 296.214752 
L 461.3328 295.758312 
L 461.938788 197.167367 
L 462.544776 248.136451 
L 463.150764 236.877609 
L 463.756752 262.590371 
L 464.36274 275.522825 
L 464.968728 238.399074 
L 465.574716 241.898444 
L 466.180704 259.699587 
L 466.786692 232.769653 
L 467.39268 293.019675 
L 467.998668 274.609946 
L 468.604656 264.416129 
L 469.210644 208.730503 
L 469.816632 213.294898 
L 470.42262 275.218532 
L 471.028608 232.161067 
L 471.634596 275.370678 
L 472.240584 300.474854 
L 472.846572 270.50199 
L 473.45256 253.461579 
L 474.058548 276.587851 
L 474.664536 256.352363 
L 475.270524 308.842913 
L 475.876512 266.394034 
L 476.4825 237.790488 
L 477.088488 265.481155 
L 477.694476 266.850473 
L 478.300464 298.801242 
L 478.906452 277.805023 
L 479.51244 214.359924 
L 480.118428 231.552481 
L 480.724416 292.258942 
L 481.330404 267.915499 
L 481.936392 293.628261 
L 482.54238 302.909199 
L 483.148368 251.635821 
L 483.754356 273.088481 
L 484.360344 265.785448 
L 484.966332 255.591631 
L 485.57232 226.988085 
L 486.178308 262.590371 
L 486.784296 279.630781 
L 487.390284 211.164847 
L 487.996272 217.859294 
L 488.60226 265.024715 
L 489.208248 231.400334 
L 489.814236 171.606752 
L 491.026212 291.650356 
L 491.6322 275.370678 
L 492.238188 230.031015 
L 492.844176 253.00514 
L 493.450164 296.519045 
L 494.056152 200.97103 
L 494.66214 227.444525 
L 495.268128 79.8624 
L 495.874116 223.184422 
L 496.480104 302.909199 
L 497.086092 225.162327 
L 497.69208 262.590371 
L 498.298068 232.617506 
L 498.904056 281.912979 
L 499.510044 234.291118 
L 500.116032 262.894664 
L 500.72202 215.120656 
L 501.328008 264.872568 
L 501.933996 266.394034 
L 502.539984 262.742517 
L 503.145972 253.918019 
L 503.75196 182.713448 
L 504.357948 200.51459 
L 504.963936 294.0847 
L 505.569924 248.440744 
L 506.175912 271.871308 
L 506.7819 260.764612 
L 507.387888 329.230547 
L 507.993876 274.609946 
L 508.599864 254.374459 
L 509.205852 244.332788 
L 509.81184 280.087221 
L 510.417828 215.729242 
L 511.023816 220.293638 
L 511.629804 296.823338 
L 512.235792 272.479895 
L 512.84178 228.813843 
L 513.447768 255.591631 
L 514.053756 198.840979 
L 514.659744 275.979264 
L 515.265732 246.767133 
L 515.87172 230.943895 
L 516.477708 253.918019 
L 517.083696 233.226092 
L 517.689684 295.454019 
L 518.295672 301.235587 
L 518.90166 247.832158 
L 519.507648 295.910459 
L 520.113636 238.246927 
L 520.719624 240.224832 
L 521.325612 236.573316 
L 521.9316 251.787968 
L 522.537588 185.147792 
L 523.143576 265.024715 
L 523.749564 254.526605 
L 524.355552 258.178122 
L 524.96154 244.789228 
L 525.567528 247.832158 
L 526.173516 225.923059 
L 526.779504 294.997579 
L 527.385492 226.227352 
L 527.99148 226.379499 
L 528.597468 230.943895 
L 529.203456 255.743777 
L 529.809444 296.671191 
L 530.415432 287.390253 
L 531.02142 276.131411 
L 531.627408 171.150312 
L 532.233396 237.181902 
L 532.839384 279.630781 
L 533.445372 222.880129 
L 534.05136 293.628261 
L 534.657348 220.902224 
L 535.263336 303.061345 
L 535.869324 244.941374 
L 536.475312 310.364378 
L 537.0813 291.193916 
L 537.687288 230.335308 
L 538.293276 263.807543 
L 538.899264 263.807543 
L 539.505252 271.262722 
L 540.11124 263.04681 
L 540.717228 265.785448 
L 541.323216 258.786708 
L 541.929204 271.262722 
L 542.535192 241.137711 
L 543.14118 254.526605 
L 543.747168 281.912979 
L 544.353156 295.910459 
L 544.959144 228.053111 
L 545.565132 287.390253 
L 546.17112 263.351103 
L 546.777108 278.109316 
L 547.383096 281.304393 
L 547.989084 255.287338 
L 548.595072 294.388993 
L 549.20106 301.53988 
L 549.807048 266.698327 
L 550.413036 174.041096 
L 551.019024 303.669931 
L 551.625012 260.916759 
L 552.231 289.520305 
L 552.836988 226.835938 
L 553.442976 332.273477 
L 554.048964 257.265242 
L 554.654952 271.110576 
L 555.26094 332.12133 
L 555.866928 254.526605 
L 556.472916 224.705887 
L 557.078904 250.418649 
L 557.684892 295.149726 
L 558.29088 290.889623 
L 558.896868 313.255162 
L 559.502856 281.0001 
L 560.108844 314.776627 
L 560.714832 292.258942 
L 561.32082 258.786708 
L 561.926808 242.659177 
L 562.532796 260.156026 
L 563.138784 272.632041 
L 563.744772 256.04807 
L 564.35076 204.774693 
L 564.956748 255.287338 
L 565.562736 238.094781 
L 566.168724 300.779147 
L 566.774712 301.692026 
L 567.3807 233.834678 
L 567.986688 243.115616 
L 568.592676 295.758312 
L 569.198664 234.291118 
L 569.804652 336.685726 
L 570.41064 291.346063 
L 571.016628 281.0001 
L 571.622616 252.396554 
L 572.228604 266.54618 
L 573.44058 199.753858 
L 574.046568 234.747558 
L 574.652556 243.876349 
L 575.258544 287.846693 
L 575.864532 304.126371 
L 576.47052 160.043616 
L 577.076508 257.113096 
L 577.682496 221.96725 
L 578.288484 270.04555 
L 578.894472 306.560715 
L 579.50046 301.692026 
L 580.106448 243.876349 
L 580.712436 217.859294 
L 581.318424 294.997579 
L 581.924412 231.096041 
L 582.5304 235.051851 
L 583.136388 251.027235 
L 583.742376 314.168041 
L 584.348364 244.637081 
L 584.954352 265.633301 
L 585.56034 267.763352 
L 586.166328 211.46914 
L 586.772316 230.639601 
L 587.378304 193.363704 
L 587.984292 254.374459 
L 589.196268 228.50955 
L 589.802256 248.440744 
L 590.408244 176.019001 
L 591.014232 205.383279 
L 591.62022 245.54996 
L 592.226208 260.156026 
L 592.832196 210.860554 
L 593.438184 312.646576 
L 594.044172 245.702107 
L 594.65016 265.785448 
L 595.256148 217.859294 
L 595.862136 255.895924 
L 596.468124 284.04303 
L 597.074112 221.358664 
L 597.6801 251.787968 
L 598.286088 225.314473 
L 598.892076 262.742517 
L 599.498064 178.757638 
L 600.104052 247.375719 
L 600.71004 264.263982 
L 601.316028 241.442004 
L 601.922016 213.903484 
L 602.528004 177.388319 
L 603.133992 181.800568 
L 603.73998 245.702107 
L 604.345968 200.058151 
L 604.951956 211.621286 
L 605.557944 226.379499 
L 606.163932 304.430664 
L 606.76992 318.275997 
L 607.375908 244.941374 
L 607.981896 215.881389 
L 608.587884 275.674971 
L 609.193872 259.091001 
L 609.79986 257.417389 
L 610.405848 293.628261 
L 611.011836 257.721682 
L 611.617824 282.825858 
L 612.223812 277.957169 
L 612.8298 228.661697 
L 613.435788 239.159807 
L 614.041776 220.445785 
L 614.647764 240.985565 
L 615.253752 291.346063 
L 615.85974 268.524085 
L 616.465728 158.522151 
L 617.071716 151.979851 
L 617.677704 234.899704 
L 618.283692 254.222312 
L 618.88968 224.097301 
L 619.495668 231.704627 
L 620.101656 303.974224 
L 620.707644 218.620026 
L 621.313632 253.461579 
L 621.91962 270.50199 
L 622.525608 167.346649 
L 623.131596 146.806869 
L 624.343572 223.945155 
L 624.94956 228.053111 
L 625.555548 240.681272 
L 626.767524 272.632041 
L 627.373512 250.418649 
L 627.9795 220.902224 
L 628.585488 254.222312 
L 629.191476 265.937594 
L 629.797464 243.724202 
L 630.403452 290.889623 
L 631.00944 191.537946 
L 631.615428 281.304393 
L 632.221416 237.638341 
L 632.827404 321.014634 
L 633.433392 252.092261 
L 634.03938 297.736217 
L 634.645368 242.05059 
L 635.251356 267.763352 
L 635.857344 243.267763 
L 636.463332 202.948935 
L 637.06932 251.787968 
L 637.675308 260.764612 
L 638.281296 240.985565 
L 638.887284 251.940114 
L 639.493272 279.630781 
L 640.09926 195.493755 
L 640.705248 246.158547 
L 641.311236 287.390253 
L 641.917224 243.876349 
L 642.523212 329.686986 
L 643.1292 246.767133 
L 643.735188 255.895924 
L 644.341176 281.760832 
L 644.947164 279.326488 
L 645.553152 237.334048 
L 646.15914 204.4704 
L 646.765128 233.530385 
L 647.371116 201.731763 
L 647.977104 281.456539 
L 648.583092 230.487455 
L 649.18908 335.164261 
L 649.795068 266.54618 
L 650.401056 270.654136 
L 651.007044 303.213492 
L 651.613032 217.707147 
L 652.21902 274.914239 
L 652.825008 304.734957 
L 653.430996 291.346063 
L 654.036984 253.613726 
L 654.642972 256.200217 
L 655.24896 275.218532 
L 655.854948 258.786708 
L 656.460936 249.96221 
L 657.066924 319.03673 
L 657.672912 217.098561 
L 658.2789 266.394034 
L 658.884888 305.343543 
L 660.096864 241.898444 
L 660.702852 281.912979 
L 661.30884 223.032275 
L 661.914828 333.947089 
L 663.126804 239.159807 
L 663.732792 281.0001 
L 664.33878 243.419909 
L 664.944768 243.419909 
L 665.550756 297.431924 
L 666.156744 213.599191 
L 666.762732 261.677492 
L 667.36872 273.088481 
L 667.974708 302.148466 
L 669.186684 278.717902 
L 669.792672 214.816363 
L 670.39866 287.99884 
L 671.004648 197.319514 
L 671.610636 286.020935 
L 672.216624 260.308173 
L 672.822612 257.265242 
L 673.4286 222.880129 
L 674.034588 273.240627 
L 674.640576 202.948935 
L 675.852552 290.128891 
L 676.45854 223.032275 
L 677.064528 222.119396 
L 677.670516 228.96599 
L 678.276504 288.150986 
L 678.882492 309.907938 
L 679.48848 144.524671 
L 680.094468 270.04555 
L 681.306444 261.829638 
L 681.912432 266.54618 
L 682.51842 280.239367 
L 683.124408 235.50829 
L 683.730396 222.119396 
L 684.942372 357.377653 
L 685.54836 258.938854 
L 686.154348 258.330268 
L 686.760336 266.394034 
L 687.366324 243.115616 
L 687.972312 206.296158 
L 688.5783 254.222312 
L 689.184288 234.138971 
L 689.790276 250.418649 
L 690.396264 236.573316 
L 691.002252 289.520305 
L 691.60824 252.852993 
L 692.214228 228.50955 
L 692.820216 170.085286 
L 693.426204 270.349843 
L 694.032192 203.709667 
L 694.63818 263.04681 
L 695.244168 196.406634 
L 695.850156 327.404788 
L 696.456144 267.611206 
L 697.062132 253.309433 
L 697.66812 277.957169 
L 698.880096 213.294898 
L 699.486084 275.522825 
L 700.092072 239.616246 
L 700.69806 255.895924 
L 701.304048 226.988085 
L 701.910036 242.811323 
L 702.516024 227.900964 
L 703.122012 265.481155 
L 703.728 258.938854 
L 703.728 258.938854 
" clip-path="url(#p098eab48c2)" style="fill: none; stroke: #a22c51; stroke-opacity: 0.9; stroke-width: 1.5; stroke-linecap: square"/>
   </g>
   <g id="patch_8">
    <path d="M 97.74 453.6864 
L 97.74 61.1712 
" style="fill: none; stroke: #000000; stroke-width: 0.8; stroke-linejoin: miter; stroke-linecap: square"/>
   </g>
   <g id="patch_9">
    <path d="M 703.728 453.6864 
L 703.728 61.1712 
" style="fill: none; stroke: #000000; stroke-width: 0.8; stroke-linejoin: miter; stroke-linecap: square"/>
   </g>
   <g id="patch_10">
    <path d="M 97.74 453.6864 
L 703.728 453.6864 
" style="fill: none; stroke: #000000; stroke-width: 0.8; stroke-linejoin: miter; stroke-linecap: square"/>
   </g>
   <g id="patch_11">
    <path d="M 97.74 61.1712 
L 703.728 61.1712 
" style="fill: none; stroke: #000000; stroke-width: 0.8; stroke-linejoin: miter; stroke-linecap: square"/>
   </g>
  </g>
 </g>
 <defs>
  <clipPath id="p098eab48c2">
   <rect x="97.74" y="61.1712" width="605.988" height="392.5152"/>
  </clipPath>
 </defs>
</svg>
