<svg xmlns="http://www.w3.org/2000/svg" xmlns:rdkit="http://www.rdkit.org/xml" xmlns:xlink="http://www.w3.org/1999/xlink" version="1.1" baseProfile="full" xml:space="preserve" width="1050px" height="350px" viewBox="0 0 1050 350">
<!-- END OF HEADER -->
<rect style="opacity:1.0;fill:#FFFFFF;stroke:none" width="1050.0" height="350.0" x="0.0" y="0.0"> </rect>
<path class="bond-0 atom-0 atom-1" d="M 144.8,140.5 L 166.0,136.1" style="fill:none;fill-rule:evenodd;stroke:#000000;stroke-width:2.0px;stroke-linecap:butt;stroke-linejoin:miter;stroke-opacity:1"/>
<path class="bond-1 atom-1 atom-2" d="M 166.0,136.1 L 172.8,115.6" style="fill:none;fill-rule:evenodd;stroke:#000000;stroke-width:2.0px;stroke-linecap:butt;stroke-linejoin:miter;stroke-opacity:1"/>
<path class="bond-1 atom-1 atom-2" d="M 171.1,134.4 L 175.9,120.0" style="fill:none;fill-rule:evenodd;stroke:#000000;stroke-width:2.0px;stroke-linecap:butt;stroke-linejoin:miter;stroke-opacity:1"/>
<path class="bond-2 atom-2 atom-3" d="M 172.8,115.6 L 194.0,111.1" style="fill:none;fill-rule:evenodd;stroke:#000000;stroke-width:2.0px;stroke-linecap:butt;stroke-linejoin:miter;stroke-opacity:1"/>
<path class="bond-3 atom-3 atom-4" d="M 194.0,111.1 L 208.4,127.3" style="fill:none;fill-rule:evenodd;stroke:#000000;stroke-width:2.0px;stroke-linecap:butt;stroke-linejoin:miter;stroke-opacity:1"/>
<path class="bond-3 atom-3 atom-4" d="M 192.9,116.4 L 203.0,127.7" style="fill:none;fill-rule:evenodd;stroke:#000000;stroke-width:2.0px;stroke-linecap:butt;stroke-linejoin:miter;stroke-opacity:1"/>
<path class="bond-4 atom-4 atom-5" d="M 208.4,127.3 L 201.6,147.8" style="fill:none;fill-rule:evenodd;stroke:#000000;stroke-width:2.0px;stroke-linecap:butt;stroke-linejoin:miter;stroke-opacity:1"/>
<path class="bond-5 atom-5 atom-6" d="M 201.6,147.8 L 180.4,152.3" style="fill:none;fill-rule:evenodd;stroke:#000000;stroke-width:2.0px;stroke-linecap:butt;stroke-linejoin:miter;stroke-opacity:1"/>
<path class="bond-5 atom-5 atom-6" d="M 197.6,144.3 L 182.7,147.4" style="fill:none;fill-rule:evenodd;stroke:#000000;stroke-width:2.0px;stroke-linecap:butt;stroke-linejoin:miter;stroke-opacity:1"/>
<path class="bond-6 atom-6 atom-7" d="M 180.4,152.3 L 173.7,172.8" style="fill:none;fill-rule:evenodd;stroke:#000000;stroke-width:2.0px;stroke-linecap:butt;stroke-linejoin:miter;stroke-opacity:1"/>
<path class="bond-7 atom-7 atom-8" d="M 173.7,172.8 L 152.5,177.2" style="fill:none;fill-rule:evenodd;stroke:#000000;stroke-width:2.0px;stroke-linecap:butt;stroke-linejoin:miter;stroke-opacity:1"/>
<path class="bond-7 atom-7 atom-8" d="M 171.4,177.7 L 156.5,180.8" style="fill:none;fill-rule:evenodd;stroke:#000000;stroke-width:2.0px;stroke-linecap:butt;stroke-linejoin:miter;stroke-opacity:1"/>
<path class="bond-8 atom-8 atom-9" d="M 152.5,177.2 L 145.7,197.8" style="fill:none;fill-rule:evenodd;stroke:#000000;stroke-width:2.0px;stroke-linecap:butt;stroke-linejoin:miter;stroke-opacity:1"/>
<path class="bond-9 atom-9 atom-10" d="M 145.7,197.8 L 136.6,199.7" style="fill:none;fill-rule:evenodd;stroke:#000000;stroke-width:2.0px;stroke-linecap:butt;stroke-linejoin:miter;stroke-opacity:1"/>
<path class="bond-9 atom-9 atom-10" d="M 136.6,199.7 L 127.6,201.6" style="fill:none;fill-rule:evenodd;stroke:#0000FF;stroke-width:2.0px;stroke-linecap:butt;stroke-linejoin:miter;stroke-opacity:1"/>
<path class="bond-10 atom-10 atom-11" d="M 121.5,198.8 L 115.8,192.5" style="fill:none;fill-rule:evenodd;stroke:#0000FF;stroke-width:2.0px;stroke-linecap:butt;stroke-linejoin:miter;stroke-opacity:1"/>
<path class="bond-10 atom-10 atom-11" d="M 115.8,192.5 L 110.1,186.1" style="fill:none;fill-rule:evenodd;stroke:#000000;stroke-width:2.0px;stroke-linecap:butt;stroke-linejoin:miter;stroke-opacity:1"/>
<path class="bond-11 atom-11 atom-12" d="M 110.1,186.1 L 88.9,190.5" style="fill:none;fill-rule:evenodd;stroke:#000000;stroke-width:2.0px;stroke-linecap:butt;stroke-linejoin:miter;stroke-opacity:1"/>
<path class="bond-12 atom-12 atom-13" d="M 88.9,190.5 L 86.2,198.9" style="fill:none;fill-rule:evenodd;stroke:#000000;stroke-width:2.0px;stroke-linecap:butt;stroke-linejoin:miter;stroke-opacity:1"/>
<path class="bond-12 atom-12 atom-13" d="M 86.2,198.9 L 83.4,207.3" style="fill:none;fill-rule:evenodd;stroke:#0000FF;stroke-width:2.0px;stroke-linecap:butt;stroke-linejoin:miter;stroke-opacity:1"/>
<path class="bond-13 atom-13 atom-14" d="M 79.2,214.9 L 74.0,221.5" style="fill:none;fill-rule:evenodd;stroke:#0000FF;stroke-width:2.0px;stroke-linecap:butt;stroke-linejoin:miter;stroke-opacity:1"/>
<path class="bond-13 atom-13 atom-14" d="M 74.0,221.5 L 68.8,228.1" style="fill:none;fill-rule:evenodd;stroke:#000000;stroke-width:2.0px;stroke-linecap:butt;stroke-linejoin:miter;stroke-opacity:1"/>
<path class="bond-14 atom-13 atom-15" d="M 79.1,209.4 L 71.1,205.1" style="fill:none;fill-rule:evenodd;stroke:#0000FF;stroke-width:2.0px;stroke-linecap:butt;stroke-linejoin:miter;stroke-opacity:1"/>
<path class="bond-14 atom-13 atom-15" d="M 71.1,205.1 L 63.1,200.8" style="fill:none;fill-rule:evenodd;stroke:#000000;stroke-width:2.0px;stroke-linecap:butt;stroke-linejoin:miter;stroke-opacity:1"/>
<path class="bond-15 atom-15 atom-16" d="M 63.1,200.8 L 62.8,192.0" style="fill:none;fill-rule:evenodd;stroke:#000000;stroke-width:2.0px;stroke-linecap:butt;stroke-linejoin:miter;stroke-opacity:1"/>
<path class="bond-15 atom-15 atom-16" d="M 62.8,192.0 L 62.5,183.1" style="fill:none;fill-rule:evenodd;stroke:#FF0000;stroke-width:2.0px;stroke-linecap:butt;stroke-linejoin:miter;stroke-opacity:1"/>
<path class="bond-16 atom-16 atom-17" d="M 58.9,177.3 L 52.4,173.9" style="fill:none;fill-rule:evenodd;stroke:#FF0000;stroke-width:2.0px;stroke-linecap:butt;stroke-linejoin:miter;stroke-opacity:1"/>
<path class="bond-16 atom-16 atom-17" d="M 52.4,173.9 L 46.0,170.4" style="fill:none;fill-rule:evenodd;stroke:#FF7F00;stroke-width:2.0px;stroke-linecap:butt;stroke-linejoin:miter;stroke-opacity:1"/>
<path class="bond-17 atom-17 atom-18" d="M 43.5,164.2 L 46.5,158.5" style="fill:none;fill-rule:evenodd;stroke:#FF7F00;stroke-width:2.0px;stroke-linecap:butt;stroke-linejoin:miter;stroke-opacity:1"/>
<path class="bond-17 atom-17 atom-18" d="M 46.5,158.5 L 49.6,152.8" style="fill:none;fill-rule:evenodd;stroke:#FF0000;stroke-width:2.0px;stroke-linecap:butt;stroke-linejoin:miter;stroke-opacity:1"/>
<path class="bond-17 atom-17 atom-18" d="M 47.3,166.2 L 50.3,160.5" style="fill:none;fill-rule:evenodd;stroke:#FF7F00;stroke-width:2.0px;stroke-linecap:butt;stroke-linejoin:miter;stroke-opacity:1"/>
<path class="bond-17 atom-17 atom-18" d="M 50.3,160.5 L 53.4,154.8" style="fill:none;fill-rule:evenodd;stroke:#FF0000;stroke-width:2.0px;stroke-linecap:butt;stroke-linejoin:miter;stroke-opacity:1"/>
<path class="bond-18 atom-17 atom-19" d="M 41.3,172.8 L 38.2,178.5" style="fill:none;fill-rule:evenodd;stroke:#FF7F00;stroke-width:2.0px;stroke-linecap:butt;stroke-linejoin:miter;stroke-opacity:1"/>
<path class="bond-18 atom-17 atom-19" d="M 38.2,178.5 L 35.1,184.2" style="fill:none;fill-rule:evenodd;stroke:#FF0000;stroke-width:2.0px;stroke-linecap:butt;stroke-linejoin:miter;stroke-opacity:1"/>
<path class="bond-19 atom-17 atom-20" d="M 40.7,167.5 L 34.2,164.1" style="fill:none;fill-rule:evenodd;stroke:#FF7F00;stroke-width:2.0px;stroke-linecap:butt;stroke-linejoin:miter;stroke-opacity:1"/>
<path class="bond-19 atom-17 atom-20" d="M 34.2,164.1 L 27.8,160.6" style="fill:none;fill-rule:evenodd;stroke:#FF0000;stroke-width:2.0px;stroke-linecap:butt;stroke-linejoin:miter;stroke-opacity:1"/>
<path class="bond-20 atom-13 atom-21" d="M 85.2,214.5 L 90.9,220.8" style="fill:none;fill-rule:evenodd;stroke:#0000FF;stroke-width:2.0px;stroke-linecap:butt;stroke-linejoin:miter;stroke-opacity:1"/>
<path class="bond-20 atom-13 atom-21" d="M 90.9,220.8 L 96.6,227.2" style="fill:none;fill-rule:evenodd;stroke:#000000;stroke-width:2.0px;stroke-linecap:butt;stroke-linejoin:miter;stroke-opacity:1"/>
<path class="bond-21 atom-21 atom-22" d="M 96.6,227.2 L 117.8,222.8" style="fill:none;fill-rule:evenodd;stroke:#000000;stroke-width:2.0px;stroke-linecap:butt;stroke-linejoin:miter;stroke-opacity:1"/>
<path class="bond-22 atom-9 atom-23" d="M 145.7,197.8 L 151.4,204.2" style="fill:none;fill-rule:evenodd;stroke:#000000;stroke-width:2.0px;stroke-linecap:butt;stroke-linejoin:miter;stroke-opacity:1"/>
<path class="bond-22 atom-9 atom-23" d="M 151.4,204.2 L 157.1,210.5" style="fill:none;fill-rule:evenodd;stroke:#0000FF;stroke-width:2.0px;stroke-linecap:butt;stroke-linejoin:miter;stroke-opacity:1"/>
<path class="bond-22 atom-9 atom-23" d="M 150.7,196.8 L 154.6,201.3" style="fill:none;fill-rule:evenodd;stroke:#000000;stroke-width:2.0px;stroke-linecap:butt;stroke-linejoin:miter;stroke-opacity:1"/>
<path class="bond-22 atom-9 atom-23" d="M 154.6,201.3 L 158.6,205.7" style="fill:none;fill-rule:evenodd;stroke:#0000FF;stroke-width:2.0px;stroke-linecap:butt;stroke-linejoin:miter;stroke-opacity:1"/>
<path class="bond-23 atom-23 atom-24" d="M 163.2,213.3 L 172.3,211.4" style="fill:none;fill-rule:evenodd;stroke:#0000FF;stroke-width:2.0px;stroke-linecap:butt;stroke-linejoin:miter;stroke-opacity:1"/>
<path class="bond-23 atom-23 atom-24" d="M 172.3,211.4 L 181.3,209.5" style="fill:none;fill-rule:evenodd;stroke:#000000;stroke-width:2.0px;stroke-linecap:butt;stroke-linejoin:miter;stroke-opacity:1"/>
<path class="bond-24 atom-24 atom-25" d="M 181.3,209.5 L 188.1,189.0" style="fill:none;fill-rule:evenodd;stroke:#000000;stroke-width:2.0px;stroke-linecap:butt;stroke-linejoin:miter;stroke-opacity:1"/>
<path class="bond-24 atom-24 atom-25" d="M 178.2,205.1 L 183.0,190.7" style="fill:none;fill-rule:evenodd;stroke:#000000;stroke-width:2.0px;stroke-linecap:butt;stroke-linejoin:miter;stroke-opacity:1"/>
<path class="bond-25 atom-25 atom-26" d="M 188.1,189.0 L 197.2,187.1" style="fill:none;fill-rule:evenodd;stroke:#000000;stroke-width:2.0px;stroke-linecap:butt;stroke-linejoin:miter;stroke-opacity:1"/>
<path class="bond-25 atom-25 atom-26" d="M 197.2,187.1 L 206.2,185.2" style="fill:none;fill-rule:evenodd;stroke:#0000FF;stroke-width:2.0px;stroke-linecap:butt;stroke-linejoin:miter;stroke-opacity:1"/>
<path class="bond-26 atom-26 atom-27" d="M 210.5,180.7 L 213.3,172.4" style="fill:none;fill-rule:evenodd;stroke:#0000FF;stroke-width:2.0px;stroke-linecap:butt;stroke-linejoin:miter;stroke-opacity:1"/>
<path class="bond-26 atom-26 atom-27" d="M 213.3,172.4 L 216.1,164.0" style="fill:none;fill-rule:evenodd;stroke:#000000;stroke-width:2.0px;stroke-linecap:butt;stroke-linejoin:miter;stroke-opacity:1"/>
<path class="bond-27 atom-26 atom-28" d="M 212.3,187.9 L 218.0,194.3" style="fill:none;fill-rule:evenodd;stroke:#0000FF;stroke-width:2.0px;stroke-linecap:butt;stroke-linejoin:miter;stroke-opacity:1"/>
<path class="bond-27 atom-26 atom-28" d="M 218.0,194.3 L 223.7,200.7" style="fill:none;fill-rule:evenodd;stroke:#000000;stroke-width:2.0px;stroke-linecap:butt;stroke-linejoin:miter;stroke-opacity:1"/>
<path class="bond-28 atom-28 atom-29" d="M 225.8,201.3 L 223.0,209.7" style="fill:none;fill-rule:evenodd;stroke:#000000;stroke-width:2.0px;stroke-linecap:butt;stroke-linejoin:miter;stroke-opacity:1"/>
<path class="bond-28 atom-28 atom-29" d="M 223.0,209.7 L 220.3,218.1" style="fill:none;fill-rule:evenodd;stroke:#FF0000;stroke-width:2.0px;stroke-linecap:butt;stroke-linejoin:miter;stroke-opacity:1"/>
<path class="bond-28 atom-28 atom-29" d="M 221.7,200.0 L 218.9,208.4" style="fill:none;fill-rule:evenodd;stroke:#000000;stroke-width:2.0px;stroke-linecap:butt;stroke-linejoin:miter;stroke-opacity:1"/>
<path class="bond-28 atom-28 atom-29" d="M 218.9,208.4 L 216.1,216.7" style="fill:none;fill-rule:evenodd;stroke:#FF0000;stroke-width:2.0px;stroke-linecap:butt;stroke-linejoin:miter;stroke-opacity:1"/>
<path class="bond-29 atom-28 atom-30" d="M 223.7,200.7 L 244.9,196.2" style="fill:none;fill-rule:evenodd;stroke:#000000;stroke-width:2.0px;stroke-linecap:butt;stroke-linejoin:miter;stroke-opacity:1"/>
<path class="bond-30 atom-30 atom-31" d="M 244.9,196.2 L 249.3,217.4" style="fill:none;fill-rule:evenodd;stroke:#000000;stroke-width:2.0px;stroke-linecap:butt;stroke-linejoin:miter;stroke-opacity:1"/>
<path class="bond-31 atom-30 atom-32" d="M 244.9,196.2 L 240.5,175.1" style="fill:none;fill-rule:evenodd;stroke:#000000;stroke-width:2.0px;stroke-linecap:butt;stroke-linejoin:miter;stroke-opacity:1"/>
<path class="bond-32 atom-30 atom-33" d="M 244.9,196.2 L 266.1,191.8" style="fill:none;fill-rule:evenodd;stroke:#000000;stroke-width:2.0px;stroke-linecap:butt;stroke-linejoin:miter;stroke-opacity:1"/>
<path class="bond-33 atom-33 atom-34" d="M 266.1,191.8 L 272.9,171.3" style="fill:none;fill-rule:evenodd;stroke:#000000;stroke-width:2.0px;stroke-linecap:butt;stroke-linejoin:miter;stroke-opacity:1"/>
<path class="bond-33 atom-33 atom-34" d="M 271.2,190.1 L 276.0,175.7" style="fill:none;fill-rule:evenodd;stroke:#000000;stroke-width:2.0px;stroke-linecap:butt;stroke-linejoin:miter;stroke-opacity:1"/>
<path class="bond-34 atom-34 atom-35" d="M 272.9,171.3 L 294.0,166.8" style="fill:none;fill-rule:evenodd;stroke:#000000;stroke-width:2.0px;stroke-linecap:butt;stroke-linejoin:miter;stroke-opacity:1"/>
<path class="bond-35 atom-35 atom-36" d="M 294.0,166.8 L 300.8,146.3" style="fill:none;fill-rule:evenodd;stroke:#000000;stroke-width:2.0px;stroke-linecap:butt;stroke-linejoin:miter;stroke-opacity:1"/>
<path class="bond-36 atom-36 atom-37" d="M 300.8,146.3 L 303.6,137.9" style="fill:none;fill-rule:evenodd;stroke:#000000;stroke-width:2.0px;stroke-linecap:butt;stroke-linejoin:miter;stroke-opacity:1"/>
<path class="bond-36 atom-36 atom-37" d="M 303.6,137.9 L 306.3,129.5" style="fill:none;fill-rule:evenodd;stroke:#33CCCC;stroke-width:2.0px;stroke-linecap:butt;stroke-linejoin:miter;stroke-opacity:1"/>
<path class="bond-37 atom-36 atom-38" d="M 300.8,146.3 L 291.8,143.3" style="fill:none;fill-rule:evenodd;stroke:#000000;stroke-width:2.0px;stroke-linecap:butt;stroke-linejoin:miter;stroke-opacity:1"/>
<path class="bond-37 atom-36 atom-38" d="M 291.8,143.3 L 282.8,140.3" style="fill:none;fill-rule:evenodd;stroke:#33CCCC;stroke-width:2.0px;stroke-linecap:butt;stroke-linejoin:miter;stroke-opacity:1"/>
<path class="bond-38 atom-36 atom-39" d="M 300.8,146.3 L 309.8,149.2" style="fill:none;fill-rule:evenodd;stroke:#000000;stroke-width:2.0px;stroke-linecap:butt;stroke-linejoin:miter;stroke-opacity:1"/>
<path class="bond-38 atom-36 atom-39" d="M 309.8,149.2 L 318.8,152.2" style="fill:none;fill-rule:evenodd;stroke:#33CCCC;stroke-width:2.0px;stroke-linecap:butt;stroke-linejoin:miter;stroke-opacity:1"/>
<path class="bond-39 atom-35 atom-40" d="M 294.0,166.8 L 308.5,183.0" style="fill:none;fill-rule:evenodd;stroke:#000000;stroke-width:2.0px;stroke-linecap:butt;stroke-linejoin:miter;stroke-opacity:1"/>
<path class="bond-39 atom-35 atom-40" d="M 293.0,172.1 L 303.1,183.4" style="fill:none;fill-rule:evenodd;stroke:#000000;stroke-width:2.0px;stroke-linecap:butt;stroke-linejoin:miter;stroke-opacity:1"/>
<path class="bond-40 atom-40 atom-41" d="M 308.5,183.0 L 301.7,203.5" style="fill:none;fill-rule:evenodd;stroke:#000000;stroke-width:2.0px;stroke-linecap:butt;stroke-linejoin:miter;stroke-opacity:1"/>
<path class="bond-41 atom-41 atom-42" d="M 301.7,203.5 L 316.1,219.7" style="fill:none;fill-rule:evenodd;stroke:#000000;stroke-width:2.0px;stroke-linecap:butt;stroke-linejoin:miter;stroke-opacity:1"/>
<path class="bond-42 atom-42 atom-43" d="M 316.1,219.7 L 322.1,226.3" style="fill:none;fill-rule:evenodd;stroke:#000000;stroke-width:2.0px;stroke-linecap:butt;stroke-linejoin:miter;stroke-opacity:1"/>
<path class="bond-42 atom-42 atom-43" d="M 322.1,226.3 L 328.0,233.0" style="fill:none;fill-rule:evenodd;stroke:#33CCCC;stroke-width:2.0px;stroke-linecap:butt;stroke-linejoin:miter;stroke-opacity:1"/>
<path class="bond-43 atom-42 atom-44" d="M 316.1,219.7 L 322.9,213.6" style="fill:none;fill-rule:evenodd;stroke:#000000;stroke-width:2.0px;stroke-linecap:butt;stroke-linejoin:miter;stroke-opacity:1"/>
<path class="bond-43 atom-42 atom-44" d="M 322.9,213.6 L 329.7,207.5" style="fill:none;fill-rule:evenodd;stroke:#33CCCC;stroke-width:2.0px;stroke-linecap:butt;stroke-linejoin:miter;stroke-opacity:1"/>
<path class="bond-44 atom-42 atom-45" d="M 316.1,219.7 L 309.3,225.7" style="fill:none;fill-rule:evenodd;stroke:#000000;stroke-width:2.0px;stroke-linecap:butt;stroke-linejoin:miter;stroke-opacity:1"/>
<path class="bond-44 atom-42 atom-45" d="M 309.3,225.7 L 302.5,231.8" style="fill:none;fill-rule:evenodd;stroke:#33CCCC;stroke-width:2.0px;stroke-linecap:butt;stroke-linejoin:miter;stroke-opacity:1"/>
<path class="bond-45 atom-41 atom-46" d="M 301.7,203.5 L 280.5,208.0" style="fill:none;fill-rule:evenodd;stroke:#000000;stroke-width:2.0px;stroke-linecap:butt;stroke-linejoin:miter;stroke-opacity:1"/>
<path class="bond-45 atom-41 atom-46" d="M 297.6,200.0 L 282.8,203.1" style="fill:none;fill-rule:evenodd;stroke:#000000;stroke-width:2.0px;stroke-linecap:butt;stroke-linejoin:miter;stroke-opacity:1"/>
<path class="bond-46 atom-6 atom-1" d="M 180.4,152.3 L 166.0,136.1" style="fill:none;fill-rule:evenodd;stroke:#000000;stroke-width:2.0px;stroke-linecap:butt;stroke-linejoin:miter;stroke-opacity:1"/>
<path class="bond-47 atom-25 atom-7" d="M 188.1,189.0 L 173.7,172.8" style="fill:none;fill-rule:evenodd;stroke:#000000;stroke-width:2.0px;stroke-linecap:butt;stroke-linejoin:miter;stroke-opacity:1"/>
<path class="bond-48 atom-46 atom-33" d="M 280.5,208.0 L 266.1,191.8" style="fill:none;fill-rule:evenodd;stroke:#000000;stroke-width:2.0px;stroke-linecap:butt;stroke-linejoin:miter;stroke-opacity:1"/>
<path class="bond-49 atom-22 atom-10" d="M 117.8,222.8 L 120.5,214.4" style="fill:none;fill-rule:evenodd;stroke:#000000;stroke-width:2.0px;stroke-linecap:butt;stroke-linejoin:miter;stroke-opacity:1"/>
<path class="bond-49 atom-22 atom-10" d="M 120.5,214.4 L 123.3,206.0" style="fill:none;fill-rule:evenodd;stroke:#0000FF;stroke-width:2.0px;stroke-linecap:butt;stroke-linejoin:miter;stroke-opacity:1"/>
<path class="atom-10" d="M 123.2 199.2 L 125.2 202.4 Q 125.4 202.7, 125.7 203.3 Q 126.0 203.9, 126.0 203.9 L 126.0 199.2 L 126.9 199.2 L 126.9 205.3 L 126.0 205.3 L 123.9 201.7 Q 123.6 201.3, 123.3 200.8 Q 123.1 200.4, 123.0 200.2 L 123.0 205.3 L 122.2 205.3 L 122.2 199.2 L 123.2 199.2 " fill="#0000FF"/>
<path class="atom-13" d="M 80.8 208.0 L 82.8 211.3 Q 83.0 211.6, 83.3 212.2 Q 83.7 212.7, 83.7 212.8 L 83.7 208.0 L 84.5 208.0 L 84.5 214.1 L 83.6 214.1 L 81.5 210.6 Q 81.2 210.2, 81.0 209.7 Q 80.7 209.2, 80.6 209.1 L 80.6 214.1 L 79.8 214.1 L 79.8 208.0 L 80.8 208.0 " fill="#0000FF"/>
<path class="atom-13" d="M 85.2 209.1 L 86.3 209.1 L 86.3 208.0 L 86.8 208.0 L 86.8 209.1 L 87.9 209.1 L 87.9 209.5 L 86.8 209.5 L 86.8 210.7 L 86.3 210.7 L 86.3 209.5 L 85.2 209.5 L 85.2 209.1 " fill="#0000FF"/>
<path class="atom-16" d="M 59.6 179.2 Q 59.6 177.8, 60.3 176.9 Q 61.0 176.1, 62.4 176.1 Q 63.8 176.1, 64.5 176.9 Q 65.2 177.8, 65.2 179.2 Q 65.2 180.7, 64.5 181.6 Q 63.7 182.4, 62.4 182.4 Q 61.1 182.4, 60.3 181.6 Q 59.6 180.7, 59.6 179.2 M 62.4 181.7 Q 63.3 181.7, 63.8 181.1 Q 64.4 180.5, 64.4 179.2 Q 64.4 178.0, 63.8 177.4 Q 63.3 176.8, 62.4 176.8 Q 61.5 176.8, 61.0 177.4 Q 60.5 178.0, 60.5 179.2 Q 60.5 180.5, 61.0 181.1 Q 61.5 181.7, 62.4 181.7 " fill="#FF0000"/>
<path class="atom-17" d="M 43.2 165.9 Q 44.2 165.9, 44.8 166.4 Q 45.3 166.9, 45.3 167.7 Q 45.3 168.6, 44.7 169.0 Q 44.2 169.5, 43.2 169.5 L 42.2 169.5 L 42.2 172.0 L 41.4 172.0 L 41.4 165.9 L 43.2 165.9 M 43.2 168.8 Q 43.8 168.8, 44.1 168.5 Q 44.4 168.3, 44.4 167.7 Q 44.4 167.2, 44.1 166.9 Q 43.8 166.6, 43.2 166.6 L 42.2 166.6 L 42.2 168.8 L 43.2 168.8 " fill="#FF7F00"/>
<path class="atom-18" d="M 50.7 149.9 Q 50.7 148.4, 51.5 147.6 Q 52.2 146.8, 53.6 146.8 Q 54.9 146.8, 55.6 147.6 Q 56.4 148.4, 56.4 149.9 Q 56.4 151.4, 55.6 152.3 Q 54.9 153.1, 53.6 153.1 Q 52.2 153.1, 51.5 152.3 Q 50.7 151.4, 50.7 149.9 M 53.6 152.4 Q 54.5 152.4, 55.0 151.8 Q 55.5 151.1, 55.5 149.9 Q 55.5 148.7, 55.0 148.1 Q 54.5 147.5, 53.6 147.5 Q 52.6 147.5, 52.1 148.1 Q 51.6 148.7, 51.6 149.9 Q 51.6 151.2, 52.1 151.8 Q 52.6 152.4, 53.6 152.4 " fill="#FF0000"/>
<path class="atom-19" d="M 24.8 185.0 L 25.6 185.0 L 25.6 187.6 L 28.7 187.6 L 28.7 185.0 L 29.5 185.0 L 29.5 191.1 L 28.7 191.1 L 28.7 188.3 L 25.6 188.3 L 25.6 191.1 L 24.8 191.1 L 24.8 185.0 " fill="#FF0000"/>
<path class="atom-19" d="M 30.3 188.1 Q 30.3 186.6, 31.0 185.8 Q 31.7 184.9, 33.1 184.9 Q 34.5 184.9, 35.2 185.8 Q 35.9 186.6, 35.9 188.1 Q 35.9 189.6, 35.2 190.4 Q 34.4 191.2, 33.1 191.2 Q 31.7 191.2, 31.0 190.4 Q 30.3 189.6, 30.3 188.1 M 33.1 190.6 Q 34.0 190.6, 34.5 189.9 Q 35.0 189.3, 35.0 188.1 Q 35.0 186.9, 34.5 186.3 Q 34.0 185.6, 33.1 185.6 Q 32.2 185.6, 31.7 186.2 Q 31.2 186.9, 31.2 188.1 Q 31.2 189.3, 31.7 189.9 Q 32.2 190.6, 33.1 190.6 " fill="#FF0000"/>
<path class="atom-20" d="M 15.9 155.7 L 16.7 155.7 L 16.7 158.3 L 19.9 158.3 L 19.9 155.7 L 20.7 155.7 L 20.7 161.8 L 19.9 161.8 L 19.9 159.0 L 16.7 159.0 L 16.7 161.8 L 15.9 161.8 L 15.9 155.7 " fill="#FF0000"/>
<path class="atom-20" d="M 21.4 158.8 Q 21.4 157.3, 22.2 156.5 Q 22.9 155.6, 24.3 155.6 Q 25.6 155.6, 26.3 156.5 Q 27.1 157.3, 27.1 158.8 Q 27.1 160.3, 26.3 161.1 Q 25.6 161.9, 24.3 161.9 Q 22.9 161.9, 22.2 161.1 Q 21.4 160.3, 21.4 158.8 M 24.3 161.2 Q 25.2 161.2, 25.7 160.6 Q 26.2 160.0, 26.2 158.8 Q 26.2 157.6, 25.7 157.0 Q 25.2 156.3, 24.3 156.3 Q 23.3 156.3, 22.8 156.9 Q 22.3 157.5, 22.3 158.8 Q 22.3 160.0, 22.8 160.6 Q 23.3 161.2, 24.3 161.2 " fill="#FF0000"/>
<path class="atom-23" d="M 158.8 210.9 L 160.8 214.1 Q 161.0 214.4, 161.3 215.0 Q 161.6 215.6, 161.7 215.6 L 161.7 210.9 L 162.5 210.9 L 162.5 217.0 L 161.6 217.0 L 159.5 213.5 Q 159.2 213.0, 159.0 212.6 Q 158.7 212.1, 158.6 211.9 L 158.6 217.0 L 157.8 217.0 L 157.8 210.9 L 158.8 210.9 " fill="#0000FF"/>
<path class="atom-26" d="M 207.9 181.5 L 209.9 184.7 Q 210.1 185.0, 210.5 185.6 Q 210.8 186.2, 210.8 186.2 L 210.8 181.5 L 211.6 181.5 L 211.6 187.6 L 210.8 187.6 L 208.6 184.0 Q 208.4 183.6, 208.1 183.2 Q 207.8 182.7, 207.8 182.5 L 207.8 187.6 L 207.0 187.6 L 207.0 181.5 L 207.9 181.5 " fill="#0000FF"/>
<path class="atom-29" d="M 214.1 221.2 Q 214.1 219.8, 214.9 218.9 Q 215.6 218.1, 217.0 218.1 Q 218.3 218.1, 219.0 218.9 Q 219.8 219.8, 219.8 221.2 Q 219.8 222.7, 219.0 223.6 Q 218.3 224.4, 217.0 224.4 Q 215.6 224.4, 214.9 223.6 Q 214.1 222.7, 214.1 221.2 M 217.0 223.7 Q 217.9 223.7, 218.4 223.1 Q 218.9 222.5, 218.9 221.2 Q 218.9 220.0, 218.4 219.4 Q 217.9 218.8, 217.0 218.8 Q 216.0 218.8, 215.5 219.4 Q 215.0 220.0, 215.0 221.2 Q 215.0 222.5, 215.5 223.1 Q 216.0 223.7, 217.0 223.7 " fill="#FF0000"/>
<path class="atom-37" d="M 305.7 122.6 L 309.4 122.6 L 309.4 123.3 L 306.6 123.3 L 306.6 125.2 L 309.1 125.2 L 309.1 125.9 L 306.6 125.9 L 306.6 128.8 L 305.7 128.8 L 305.7 122.6 " fill="#33CCCC"/>
<path class="atom-38" d="M 278.4 136.4 L 282.1 136.4 L 282.1 137.1 L 279.2 137.1 L 279.2 139.0 L 281.8 139.0 L 281.8 139.7 L 279.2 139.7 L 279.2 142.6 L 278.4 142.6 L 278.4 136.4 " fill="#33CCCC"/>
<path class="atom-39" d="M 319.5 150.0 L 323.2 150.0 L 323.2 150.7 L 320.4 150.7 L 320.4 152.5 L 322.9 152.5 L 322.9 153.2 L 320.4 153.2 L 320.4 156.1 L 319.5 156.1 L 319.5 150.0 " fill="#33CCCC"/>
<path class="atom-43" d="M 328.7 232.7 L 332.4 232.7 L 332.4 233.4 L 329.6 233.4 L 329.6 235.3 L 332.1 235.3 L 332.1 236.0 L 329.6 236.0 L 329.6 238.9 L 328.7 238.9 L 328.7 232.7 " fill="#33CCCC"/>
<path class="atom-44" d="M 330.4 202.2 L 334.1 202.2 L 334.1 202.9 L 331.3 202.9 L 331.3 204.7 L 333.8 204.7 L 333.8 205.5 L 331.3 205.5 L 331.3 208.3 L 330.4 208.3 L 330.4 202.2 " fill="#33CCCC"/>
<path class="atom-45" d="M 298.2 231.0 L 301.8 231.0 L 301.8 231.7 L 299.0 231.7 L 299.0 233.6 L 301.5 233.6 L 301.5 234.3 L 299.0 234.3 L 299.0 237.2 L 298.2 237.2 L 298.2 231.0 " fill="#33CCCC"/>
<path class="bond-0 atom-0 atom-1" d="M 494.8,140.5 L 516.0,136.1" style="fill:none;fill-rule:evenodd;stroke:#000000;stroke-width:2.0px;stroke-linecap:butt;stroke-linejoin:miter;stroke-opacity:1"/>
<path class="bond-1 atom-1 atom-2" d="M 516.0,136.1 L 522.8,115.6" style="fill:none;fill-rule:evenodd;stroke:#000000;stroke-width:2.0px;stroke-linecap:butt;stroke-linejoin:miter;stroke-opacity:1"/>
<path class="bond-1 atom-1 atom-2" d="M 521.1,134.4 L 525.9,120.0" style="fill:none;fill-rule:evenodd;stroke:#000000;stroke-width:2.0px;stroke-linecap:butt;stroke-linejoin:miter;stroke-opacity:1"/>
<path class="bond-2 atom-2 atom-3" d="M 522.8,115.6 L 544.0,111.1" style="fill:none;fill-rule:evenodd;stroke:#000000;stroke-width:2.0px;stroke-linecap:butt;stroke-linejoin:miter;stroke-opacity:1"/>
<path class="bond-3 atom-3 atom-4" d="M 544.0,111.1 L 558.4,127.3" style="fill:none;fill-rule:evenodd;stroke:#000000;stroke-width:2.0px;stroke-linecap:butt;stroke-linejoin:miter;stroke-opacity:1"/>
<path class="bond-3 atom-3 atom-4" d="M 542.9,116.4 L 553.0,127.7" style="fill:none;fill-rule:evenodd;stroke:#000000;stroke-width:2.0px;stroke-linecap:butt;stroke-linejoin:miter;stroke-opacity:1"/>
<path class="bond-4 atom-4 atom-5" d="M 558.4,127.3 L 551.6,147.8" style="fill:none;fill-rule:evenodd;stroke:#000000;stroke-width:2.0px;stroke-linecap:butt;stroke-linejoin:miter;stroke-opacity:1"/>
<path class="bond-5 atom-5 atom-6" d="M 551.6,147.8 L 530.4,152.3" style="fill:none;fill-rule:evenodd;stroke:#000000;stroke-width:2.0px;stroke-linecap:butt;stroke-linejoin:miter;stroke-opacity:1"/>
<path class="bond-5 atom-5 atom-6" d="M 547.6,144.3 L 532.7,147.4" style="fill:none;fill-rule:evenodd;stroke:#000000;stroke-width:2.0px;stroke-linecap:butt;stroke-linejoin:miter;stroke-opacity:1"/>
<path class="bond-6 atom-6 atom-7" d="M 530.4,152.3 L 523.7,172.8" style="fill:none;fill-rule:evenodd;stroke:#000000;stroke-width:2.0px;stroke-linecap:butt;stroke-linejoin:miter;stroke-opacity:1"/>
<path class="bond-7 atom-7 atom-8" d="M 523.7,172.8 L 502.5,177.2" style="fill:none;fill-rule:evenodd;stroke:#000000;stroke-width:2.0px;stroke-linecap:butt;stroke-linejoin:miter;stroke-opacity:1"/>
<path class="bond-7 atom-7 atom-8" d="M 521.4,177.7 L 506.5,180.8" style="fill:none;fill-rule:evenodd;stroke:#000000;stroke-width:2.0px;stroke-linecap:butt;stroke-linejoin:miter;stroke-opacity:1"/>
<path class="bond-8 atom-8 atom-9" d="M 502.5,177.2 L 495.7,197.8" style="fill:none;fill-rule:evenodd;stroke:#000000;stroke-width:2.0px;stroke-linecap:butt;stroke-linejoin:miter;stroke-opacity:1"/>
<path class="bond-9 atom-9 atom-10" d="M 495.7,197.8 L 486.6,199.7" style="fill:none;fill-rule:evenodd;stroke:#000000;stroke-width:2.0px;stroke-linecap:butt;stroke-linejoin:miter;stroke-opacity:1"/>
<path class="bond-9 atom-9 atom-10" d="M 486.6,199.7 L 477.6,201.6" style="fill:none;fill-rule:evenodd;stroke:#0000FF;stroke-width:2.0px;stroke-linecap:butt;stroke-linejoin:miter;stroke-opacity:1"/>
<path class="bond-10 atom-10 atom-11" d="M 471.5,198.8 L 465.8,192.5" style="fill:none;fill-rule:evenodd;stroke:#0000FF;stroke-width:2.0px;stroke-linecap:butt;stroke-linejoin:miter;stroke-opacity:1"/>
<path class="bond-10 atom-10 atom-11" d="M 465.8,192.5 L 460.1,186.1" style="fill:none;fill-rule:evenodd;stroke:#000000;stroke-width:2.0px;stroke-linecap:butt;stroke-linejoin:miter;stroke-opacity:1"/>
<path class="bond-11 atom-11 atom-12" d="M 460.1,186.1 L 438.9,190.5" style="fill:none;fill-rule:evenodd;stroke:#000000;stroke-width:2.0px;stroke-linecap:butt;stroke-linejoin:miter;stroke-opacity:1"/>
<path class="bond-12 atom-12 atom-13" d="M 438.9,190.5 L 436.2,198.9" style="fill:none;fill-rule:evenodd;stroke:#000000;stroke-width:2.0px;stroke-linecap:butt;stroke-linejoin:miter;stroke-opacity:1"/>
<path class="bond-12 atom-12 atom-13" d="M 436.2,198.9 L 433.4,207.3" style="fill:none;fill-rule:evenodd;stroke:#0000FF;stroke-width:2.0px;stroke-linecap:butt;stroke-linejoin:miter;stroke-opacity:1"/>
<path class="bond-13 atom-13 atom-14" d="M 429.2,214.9 L 424.0,221.5" style="fill:none;fill-rule:evenodd;stroke:#0000FF;stroke-width:2.0px;stroke-linecap:butt;stroke-linejoin:miter;stroke-opacity:1"/>
<path class="bond-13 atom-13 atom-14" d="M 424.0,221.5 L 418.8,228.1" style="fill:none;fill-rule:evenodd;stroke:#000000;stroke-width:2.0px;stroke-linecap:butt;stroke-linejoin:miter;stroke-opacity:1"/>
<path class="bond-14 atom-13 atom-15" d="M 429.1,209.4 L 421.1,205.1" style="fill:none;fill-rule:evenodd;stroke:#0000FF;stroke-width:2.0px;stroke-linecap:butt;stroke-linejoin:miter;stroke-opacity:1"/>
<path class="bond-14 atom-13 atom-15" d="M 421.1,205.1 L 413.1,200.8" style="fill:none;fill-rule:evenodd;stroke:#000000;stroke-width:2.0px;stroke-linecap:butt;stroke-linejoin:miter;stroke-opacity:1"/>
<path class="bond-15 atom-15 atom-16" d="M 413.1,200.8 L 412.8,192.0" style="fill:none;fill-rule:evenodd;stroke:#000000;stroke-width:2.0px;stroke-linecap:butt;stroke-linejoin:miter;stroke-opacity:1"/>
<path class="bond-15 atom-15 atom-16" d="M 412.8,192.0 L 412.5,183.1" style="fill:none;fill-rule:evenodd;stroke:#FF0000;stroke-width:2.0px;stroke-linecap:butt;stroke-linejoin:miter;stroke-opacity:1"/>
<path class="bond-16 atom-16 atom-17" d="M 408.9,177.3 L 402.4,173.9" style="fill:none;fill-rule:evenodd;stroke:#FF0000;stroke-width:2.0px;stroke-linecap:butt;stroke-linejoin:miter;stroke-opacity:1"/>
<path class="bond-16 atom-16 atom-17" d="M 402.4,173.9 L 396.0,170.4" style="fill:none;fill-rule:evenodd;stroke:#FF7F00;stroke-width:2.0px;stroke-linecap:butt;stroke-linejoin:miter;stroke-opacity:1"/>
<path class="bond-17 atom-17 atom-18" d="M 393.5,164.2 L 396.5,158.5" style="fill:none;fill-rule:evenodd;stroke:#FF7F00;stroke-width:2.0px;stroke-linecap:butt;stroke-linejoin:miter;stroke-opacity:1"/>
<path class="bond-17 atom-17 atom-18" d="M 396.5,158.5 L 399.6,152.8" style="fill:none;fill-rule:evenodd;stroke:#FF0000;stroke-width:2.0px;stroke-linecap:butt;stroke-linejoin:miter;stroke-opacity:1"/>
<path class="bond-17 atom-17 atom-18" d="M 397.3,166.2 L 400.3,160.5" style="fill:none;fill-rule:evenodd;stroke:#FF7F00;stroke-width:2.0px;stroke-linecap:butt;stroke-linejoin:miter;stroke-opacity:1"/>
<path class="bond-17 atom-17 atom-18" d="M 400.3,160.5 L 403.4,154.8" style="fill:none;fill-rule:evenodd;stroke:#FF0000;stroke-width:2.0px;stroke-linecap:butt;stroke-linejoin:miter;stroke-opacity:1"/>
<path class="bond-18 atom-17 atom-19" d="M 391.3,172.8 L 388.2,178.5" style="fill:none;fill-rule:evenodd;stroke:#FF7F00;stroke-width:2.0px;stroke-linecap:butt;stroke-linejoin:miter;stroke-opacity:1"/>
<path class="bond-18 atom-17 atom-19" d="M 388.2,178.5 L 385.1,184.2" style="fill:none;fill-rule:evenodd;stroke:#FF0000;stroke-width:2.0px;stroke-linecap:butt;stroke-linejoin:miter;stroke-opacity:1"/>
<path class="bond-19 atom-17 atom-20" d="M 390.7,167.5 L 384.2,164.1" style="fill:none;fill-rule:evenodd;stroke:#FF7F00;stroke-width:2.0px;stroke-linecap:butt;stroke-linejoin:miter;stroke-opacity:1"/>
<path class="bond-19 atom-17 atom-20" d="M 384.2,164.1 L 377.8,160.6" style="fill:none;fill-rule:evenodd;stroke:#FF0000;stroke-width:2.0px;stroke-linecap:butt;stroke-linejoin:miter;stroke-opacity:1"/>
<path class="bond-20 atom-13 atom-21" d="M 435.2,214.5 L 440.9,220.8" style="fill:none;fill-rule:evenodd;stroke:#0000FF;stroke-width:2.0px;stroke-linecap:butt;stroke-linejoin:miter;stroke-opacity:1"/>
<path class="bond-20 atom-13 atom-21" d="M 440.9,220.8 L 446.6,227.2" style="fill:none;fill-rule:evenodd;stroke:#000000;stroke-width:2.0px;stroke-linecap:butt;stroke-linejoin:miter;stroke-opacity:1"/>
<path class="bond-21 atom-21 atom-22" d="M 446.6,227.2 L 467.8,222.8" style="fill:none;fill-rule:evenodd;stroke:#000000;stroke-width:2.0px;stroke-linecap:butt;stroke-linejoin:miter;stroke-opacity:1"/>
<path class="bond-22 atom-9 atom-23" d="M 495.7,197.8 L 501.4,204.2" style="fill:none;fill-rule:evenodd;stroke:#000000;stroke-width:2.0px;stroke-linecap:butt;stroke-linejoin:miter;stroke-opacity:1"/>
<path class="bond-22 atom-9 atom-23" d="M 501.4,204.2 L 507.1,210.5" style="fill:none;fill-rule:evenodd;stroke:#0000FF;stroke-width:2.0px;stroke-linecap:butt;stroke-linejoin:miter;stroke-opacity:1"/>
<path class="bond-22 atom-9 atom-23" d="M 500.7,196.8 L 504.6,201.3" style="fill:none;fill-rule:evenodd;stroke:#000000;stroke-width:2.0px;stroke-linecap:butt;stroke-linejoin:miter;stroke-opacity:1"/>
<path class="bond-22 atom-9 atom-23" d="M 504.6,201.3 L 508.6,205.7" style="fill:none;fill-rule:evenodd;stroke:#0000FF;stroke-width:2.0px;stroke-linecap:butt;stroke-linejoin:miter;stroke-opacity:1"/>
<path class="bond-23 atom-23 atom-24" d="M 513.2,213.3 L 522.3,211.4" style="fill:none;fill-rule:evenodd;stroke:#0000FF;stroke-width:2.0px;stroke-linecap:butt;stroke-linejoin:miter;stroke-opacity:1"/>
<path class="bond-23 atom-23 atom-24" d="M 522.3,211.4 L 531.3,209.5" style="fill:none;fill-rule:evenodd;stroke:#000000;stroke-width:2.0px;stroke-linecap:butt;stroke-linejoin:miter;stroke-opacity:1"/>
<path class="bond-24 atom-24 atom-25" d="M 531.3,209.5 L 538.1,189.0" style="fill:none;fill-rule:evenodd;stroke:#000000;stroke-width:2.0px;stroke-linecap:butt;stroke-linejoin:miter;stroke-opacity:1"/>
<path class="bond-24 atom-24 atom-25" d="M 528.2,205.1 L 533.0,190.7" style="fill:none;fill-rule:evenodd;stroke:#000000;stroke-width:2.0px;stroke-linecap:butt;stroke-linejoin:miter;stroke-opacity:1"/>
<path class="bond-25 atom-25 atom-26" d="M 538.1,189.0 L 547.2,187.1" style="fill:none;fill-rule:evenodd;stroke:#000000;stroke-width:2.0px;stroke-linecap:butt;stroke-linejoin:miter;stroke-opacity:1"/>
<path class="bond-25 atom-25 atom-26" d="M 547.2,187.1 L 556.2,185.2" style="fill:none;fill-rule:evenodd;stroke:#0000FF;stroke-width:2.0px;stroke-linecap:butt;stroke-linejoin:miter;stroke-opacity:1"/>
<path class="bond-26 atom-26 atom-27" d="M 560.5,180.7 L 563.3,172.4" style="fill:none;fill-rule:evenodd;stroke:#0000FF;stroke-width:2.0px;stroke-linecap:butt;stroke-linejoin:miter;stroke-opacity:1"/>
<path class="bond-26 atom-26 atom-27" d="M 563.3,172.4 L 566.1,164.0" style="fill:none;fill-rule:evenodd;stroke:#000000;stroke-width:2.0px;stroke-linecap:butt;stroke-linejoin:miter;stroke-opacity:1"/>
<path class="bond-27 atom-26 atom-28" d="M 562.3,187.9 L 568.0,194.3" style="fill:none;fill-rule:evenodd;stroke:#0000FF;stroke-width:2.0px;stroke-linecap:butt;stroke-linejoin:miter;stroke-opacity:1"/>
<path class="bond-27 atom-26 atom-28" d="M 568.0,194.3 L 573.7,200.7" style="fill:none;fill-rule:evenodd;stroke:#000000;stroke-width:2.0px;stroke-linecap:butt;stroke-linejoin:miter;stroke-opacity:1"/>
<path class="bond-28 atom-28 atom-29" d="M 575.8,201.3 L 573.0,209.7" style="fill:none;fill-rule:evenodd;stroke:#000000;stroke-width:2.0px;stroke-linecap:butt;stroke-linejoin:miter;stroke-opacity:1"/>
<path class="bond-28 atom-28 atom-29" d="M 573.0,209.7 L 570.3,218.1" style="fill:none;fill-rule:evenodd;stroke:#FF0000;stroke-width:2.0px;stroke-linecap:butt;stroke-linejoin:miter;stroke-opacity:1"/>
<path class="bond-28 atom-28 atom-29" d="M 571.7,200.0 L 568.9,208.4" style="fill:none;fill-rule:evenodd;stroke:#000000;stroke-width:2.0px;stroke-linecap:butt;stroke-linejoin:miter;stroke-opacity:1"/>
<path class="bond-28 atom-28 atom-29" d="M 568.9,208.4 L 566.1,216.7" style="fill:none;fill-rule:evenodd;stroke:#FF0000;stroke-width:2.0px;stroke-linecap:butt;stroke-linejoin:miter;stroke-opacity:1"/>
<path class="bond-29 atom-28 atom-30" d="M 573.7,200.7 L 594.9,196.2" style="fill:none;fill-rule:evenodd;stroke:#000000;stroke-width:2.0px;stroke-linecap:butt;stroke-linejoin:miter;stroke-opacity:1"/>
<path class="bond-30 atom-30 atom-31" d="M 594.9,196.2 L 599.3,217.4" style="fill:none;fill-rule:evenodd;stroke:#000000;stroke-width:2.0px;stroke-linecap:butt;stroke-linejoin:miter;stroke-opacity:1"/>
<path class="bond-31 atom-30 atom-32" d="M 594.9,196.2 L 590.5,175.1" style="fill:none;fill-rule:evenodd;stroke:#000000;stroke-width:2.0px;stroke-linecap:butt;stroke-linejoin:miter;stroke-opacity:1"/>
<path class="bond-32 atom-30 atom-33" d="M 594.9,196.2 L 616.1,191.8" style="fill:none;fill-rule:evenodd;stroke:#000000;stroke-width:2.0px;stroke-linecap:butt;stroke-linejoin:miter;stroke-opacity:1"/>
<path class="bond-33 atom-33 atom-34" d="M 616.1,191.8 L 622.9,171.3" style="fill:none;fill-rule:evenodd;stroke:#000000;stroke-width:2.0px;stroke-linecap:butt;stroke-linejoin:miter;stroke-opacity:1"/>
<path class="bond-33 atom-33 atom-34" d="M 621.2,190.1 L 626.0,175.7" style="fill:none;fill-rule:evenodd;stroke:#000000;stroke-width:2.0px;stroke-linecap:butt;stroke-linejoin:miter;stroke-opacity:1"/>
<path class="bond-34 atom-34 atom-35" d="M 622.9,171.3 L 644.0,166.8" style="fill:none;fill-rule:evenodd;stroke:#000000;stroke-width:2.0px;stroke-linecap:butt;stroke-linejoin:miter;stroke-opacity:1"/>
<path class="bond-35 atom-35 atom-36" d="M 644.0,166.8 L 650.8,146.3" style="fill:none;fill-rule:evenodd;stroke:#000000;stroke-width:2.0px;stroke-linecap:butt;stroke-linejoin:miter;stroke-opacity:1"/>
<path class="bond-36 atom-36 atom-37" d="M 650.8,146.3 L 653.6,137.9" style="fill:none;fill-rule:evenodd;stroke:#000000;stroke-width:2.0px;stroke-linecap:butt;stroke-linejoin:miter;stroke-opacity:1"/>
<path class="bond-36 atom-36 atom-37" d="M 653.6,137.9 L 656.3,129.5" style="fill:none;fill-rule:evenodd;stroke:#33CCCC;stroke-width:2.0px;stroke-linecap:butt;stroke-linejoin:miter;stroke-opacity:1"/>
<path class="bond-37 atom-36 atom-38" d="M 650.8,146.3 L 641.8,143.3" style="fill:none;fill-rule:evenodd;stroke:#000000;stroke-width:2.0px;stroke-linecap:butt;stroke-linejoin:miter;stroke-opacity:1"/>
<path class="bond-37 atom-36 atom-38" d="M 641.8,143.3 L 632.8,140.3" style="fill:none;fill-rule:evenodd;stroke:#33CCCC;stroke-width:2.0px;stroke-linecap:butt;stroke-linejoin:miter;stroke-opacity:1"/>
<path class="bond-38 atom-36 atom-39" d="M 650.8,146.3 L 659.8,149.2" style="fill:none;fill-rule:evenodd;stroke:#000000;stroke-width:2.0px;stroke-linecap:butt;stroke-linejoin:miter;stroke-opacity:1"/>
<path class="bond-38 atom-36 atom-39" d="M 659.8,149.2 L 668.8,152.2" style="fill:none;fill-rule:evenodd;stroke:#33CCCC;stroke-width:2.0px;stroke-linecap:butt;stroke-linejoin:miter;stroke-opacity:1"/>
<path class="bond-39 atom-35 atom-40" d="M 644.0,166.8 L 658.5,183.0" style="fill:none;fill-rule:evenodd;stroke:#000000;stroke-width:2.0px;stroke-linecap:butt;stroke-linejoin:miter;stroke-opacity:1"/>
<path class="bond-39 atom-35 atom-40" d="M 643.0,172.1 L 653.1,183.4" style="fill:none;fill-rule:evenodd;stroke:#000000;stroke-width:2.0px;stroke-linecap:butt;stroke-linejoin:miter;stroke-opacity:1"/>
<path class="bond-40 atom-40 atom-41" d="M 658.5,183.0 L 651.7,203.5" style="fill:none;fill-rule:evenodd;stroke:#000000;stroke-width:2.0px;stroke-linecap:butt;stroke-linejoin:miter;stroke-opacity:1"/>
<path class="bond-41 atom-41 atom-42" d="M 651.7,203.5 L 666.1,219.7" style="fill:none;fill-rule:evenodd;stroke:#000000;stroke-width:2.0px;stroke-linecap:butt;stroke-linejoin:miter;stroke-opacity:1"/>
<path class="bond-42 atom-42 atom-43" d="M 666.1,219.7 L 672.1,226.3" style="fill:none;fill-rule:evenodd;stroke:#000000;stroke-width:2.0px;stroke-linecap:butt;stroke-linejoin:miter;stroke-opacity:1"/>
<path class="bond-42 atom-42 atom-43" d="M 672.1,226.3 L 678.0,233.0" style="fill:none;fill-rule:evenodd;stroke:#33CCCC;stroke-width:2.0px;stroke-linecap:butt;stroke-linejoin:miter;stroke-opacity:1"/>
<path class="bond-43 atom-42 atom-44" d="M 666.1,219.7 L 672.9,213.6" style="fill:none;fill-rule:evenodd;stroke:#000000;stroke-width:2.0px;stroke-linecap:butt;stroke-linejoin:miter;stroke-opacity:1"/>
<path class="bond-43 atom-42 atom-44" d="M 672.9,213.6 L 679.7,207.5" style="fill:none;fill-rule:evenodd;stroke:#33CCCC;stroke-width:2.0px;stroke-linecap:butt;stroke-linejoin:miter;stroke-opacity:1"/>
<path class="bond-44 atom-42 atom-45" d="M 666.1,219.7 L 659.3,225.7" style="fill:none;fill-rule:evenodd;stroke:#000000;stroke-width:2.0px;stroke-linecap:butt;stroke-linejoin:miter;stroke-opacity:1"/>
<path class="bond-44 atom-42 atom-45" d="M 659.3,225.7 L 652.5,231.8" style="fill:none;fill-rule:evenodd;stroke:#33CCCC;stroke-width:2.0px;stroke-linecap:butt;stroke-linejoin:miter;stroke-opacity:1"/>
<path class="bond-45 atom-41 atom-46" d="M 651.7,203.5 L 630.5,208.0" style="fill:none;fill-rule:evenodd;stroke:#000000;stroke-width:2.0px;stroke-linecap:butt;stroke-linejoin:miter;stroke-opacity:1"/>
<path class="bond-45 atom-41 atom-46" d="M 647.6,200.0 L 632.8,203.1" style="fill:none;fill-rule:evenodd;stroke:#000000;stroke-width:2.0px;stroke-linecap:butt;stroke-linejoin:miter;stroke-opacity:1"/>
<path class="bond-46 atom-6 atom-1" d="M 530.4,152.3 L 516.0,136.1" style="fill:none;fill-rule:evenodd;stroke:#000000;stroke-width:2.0px;stroke-linecap:butt;stroke-linejoin:miter;stroke-opacity:1"/>
<path class="bond-47 atom-25 atom-7" d="M 538.1,189.0 L 523.7,172.8" style="fill:none;fill-rule:evenodd;stroke:#000000;stroke-width:2.0px;stroke-linecap:butt;stroke-linejoin:miter;stroke-opacity:1"/>
<path class="bond-48 atom-46 atom-33" d="M 630.5,208.0 L 616.1,191.8" style="fill:none;fill-rule:evenodd;stroke:#000000;stroke-width:2.0px;stroke-linecap:butt;stroke-linejoin:miter;stroke-opacity:1"/>
<path class="bond-49 atom-22 atom-10" d="M 467.8,222.8 L 470.5,214.4" style="fill:none;fill-rule:evenodd;stroke:#000000;stroke-width:2.0px;stroke-linecap:butt;stroke-linejoin:miter;stroke-opacity:1"/>
<path class="bond-49 atom-22 atom-10" d="M 470.5,214.4 L 473.3,206.0" style="fill:none;fill-rule:evenodd;stroke:#0000FF;stroke-width:2.0px;stroke-linecap:butt;stroke-linejoin:miter;stroke-opacity:1"/>
<path class="atom-10" d="M 473.2 199.2 L 475.2 202.4 Q 475.4 202.7, 475.7 203.3 Q 476.0 203.9, 476.0 203.9 L 476.0 199.2 L 476.9 199.2 L 476.9 205.3 L 476.0 205.3 L 473.9 201.7 Q 473.6 201.3, 473.3 200.8 Q 473.1 200.4, 473.0 200.2 L 473.0 205.3 L 472.2 205.3 L 472.2 199.2 L 473.2 199.2 " fill="#0000FF"/>
<path class="atom-13" d="M 430.8 208.0 L 432.8 211.3 Q 433.0 211.6, 433.3 212.2 Q 433.7 212.7, 433.7 212.8 L 433.7 208.0 L 434.5 208.0 L 434.5 214.1 L 433.6 214.1 L 431.5 210.6 Q 431.2 210.2, 431.0 209.7 Q 430.7 209.2, 430.6 209.1 L 430.6 214.1 L 429.8 214.1 L 429.8 208.0 L 430.8 208.0 " fill="#0000FF"/>
<path class="atom-13" d="M 435.2 209.1 L 436.3 209.1 L 436.3 208.0 L 436.8 208.0 L 436.8 209.1 L 437.9 209.1 L 437.9 209.5 L 436.8 209.5 L 436.8 210.7 L 436.3 210.7 L 436.3 209.5 L 435.2 209.5 L 435.2 209.1 " fill="#0000FF"/>
<path class="atom-16" d="M 409.6 179.2 Q 409.6 177.8, 410.3 176.9 Q 411.0 176.1, 412.4 176.1 Q 413.8 176.1, 414.5 176.9 Q 415.2 177.8, 415.2 179.2 Q 415.2 180.7, 414.5 181.6 Q 413.7 182.4, 412.4 182.4 Q 411.1 182.4, 410.3 181.6 Q 409.6 180.7, 409.6 179.2 M 412.4 181.7 Q 413.3 181.7, 413.8 181.1 Q 414.4 180.5, 414.4 179.2 Q 414.4 178.0, 413.8 177.4 Q 413.3 176.8, 412.4 176.8 Q 411.5 176.8, 411.0 177.4 Q 410.5 178.0, 410.5 179.2 Q 410.5 180.5, 411.0 181.1 Q 411.5 181.7, 412.4 181.7 " fill="#FF0000"/>
<path class="atom-17" d="M 393.2 165.9 Q 394.2 165.9, 394.8 166.4 Q 395.3 166.9, 395.3 167.7 Q 395.3 168.6, 394.7 169.0 Q 394.2 169.5, 393.2 169.5 L 392.2 169.5 L 392.2 172.0 L 391.4 172.0 L 391.4 165.9 L 393.2 165.9 M 393.2 168.8 Q 393.8 168.8, 394.1 168.5 Q 394.4 168.3, 394.4 167.7 Q 394.4 167.2, 394.1 166.9 Q 393.8 166.6, 393.2 166.6 L 392.2 166.6 L 392.2 168.8 L 393.2 168.8 " fill="#FF7F00"/>
<path class="atom-18" d="M 400.7 149.9 Q 400.7 148.4, 401.5 147.6 Q 402.2 146.8, 403.6 146.8 Q 404.9 146.8, 405.6 147.6 Q 406.4 148.4, 406.4 149.9 Q 406.4 151.4, 405.6 152.3 Q 404.9 153.1, 403.6 153.1 Q 402.2 153.1, 401.5 152.3 Q 400.7 151.4, 400.7 149.9 M 403.6 152.4 Q 404.5 152.4, 405.0 151.8 Q 405.5 151.1, 405.5 149.9 Q 405.5 148.7, 405.0 148.1 Q 404.5 147.5, 403.6 147.5 Q 402.6 147.5, 402.1 148.1 Q 401.6 148.7, 401.6 149.9 Q 401.6 151.2, 402.1 151.8 Q 402.6 152.4, 403.6 152.4 " fill="#FF0000"/>
<path class="atom-19" d="M 380.3 188.1 Q 380.3 186.6, 381.0 185.8 Q 381.7 184.9, 383.1 184.9 Q 384.5 184.9, 385.2 185.8 Q 385.9 186.6, 385.9 188.1 Q 385.9 189.6, 385.2 190.4 Q 384.4 191.2, 383.1 191.2 Q 381.7 191.2, 381.0 190.4 Q 380.3 189.6, 380.3 188.1 M 383.1 190.6 Q 384.0 190.6, 384.5 189.9 Q 385.0 189.3, 385.0 188.1 Q 385.0 186.9, 384.5 186.3 Q 384.0 185.6, 383.1 185.6 Q 382.2 185.6, 381.7 186.2 Q 381.2 186.9, 381.2 188.1 Q 381.2 189.3, 381.7 189.9 Q 382.2 190.6, 383.1 190.6 " fill="#FF0000"/>
<path class="atom-19" d="M 386.3 186.0 L 388.4 186.0 L 388.4 186.4 L 386.3 186.4 L 386.3 186.0 " fill="#FF0000"/>
<path class="atom-20" d="M 365.9 155.7 L 366.7 155.7 L 366.7 158.3 L 369.9 158.3 L 369.9 155.7 L 370.7 155.7 L 370.7 161.8 L 369.9 161.8 L 369.9 159.0 L 366.7 159.0 L 366.7 161.8 L 365.9 161.8 L 365.9 155.7 " fill="#FF0000"/>
<path class="atom-20" d="M 371.4 158.8 Q 371.4 157.3, 372.2 156.5 Q 372.9 155.6, 374.3 155.6 Q 375.6 155.6, 376.3 156.5 Q 377.1 157.3, 377.1 158.8 Q 377.1 160.3, 376.3 161.1 Q 375.6 161.9, 374.3 161.9 Q 372.9 161.9, 372.2 161.1 Q 371.4 160.3, 371.4 158.8 M 374.3 161.2 Q 375.2 161.2, 375.7 160.6 Q 376.2 160.0, 376.2 158.8 Q 376.2 157.6, 375.7 157.0 Q 375.2 156.3, 374.3 156.3 Q 373.3 156.3, 372.8 156.9 Q 372.3 157.5, 372.3 158.8 Q 372.3 160.0, 372.8 160.6 Q 373.3 161.2, 374.3 161.2 " fill="#FF0000"/>
<path class="atom-23" d="M 508.8 210.9 L 510.8 214.1 Q 511.0 214.4, 511.3 215.0 Q 511.6 215.6, 511.7 215.6 L 511.7 210.9 L 512.5 210.9 L 512.5 217.0 L 511.6 217.0 L 509.5 213.5 Q 509.2 213.0, 509.0 212.6 Q 508.7 212.1, 508.6 211.9 L 508.6 217.0 L 507.8 217.0 L 507.8 210.9 L 508.8 210.9 " fill="#0000FF"/>
<path class="atom-26" d="M 557.9 181.5 L 559.9 184.7 Q 560.1 185.0, 560.5 185.6 Q 560.8 186.2, 560.8 186.2 L 560.8 181.5 L 561.6 181.5 L 561.6 187.6 L 560.8 187.6 L 558.6 184.0 Q 558.4 183.6, 558.1 183.2 Q 557.8 182.7, 557.8 182.5 L 557.8 187.6 L 557.0 187.6 L 557.0 181.5 L 557.9 181.5 " fill="#0000FF"/>
<path class="atom-29" d="M 564.1 221.2 Q 564.1 219.8, 564.9 218.9 Q 565.6 218.1, 567.0 218.1 Q 568.3 218.1, 569.0 218.9 Q 569.8 219.8, 569.8 221.2 Q 569.8 222.7, 569.0 223.6 Q 568.3 224.4, 567.0 224.4 Q 565.6 224.4, 564.9 223.6 Q 564.1 222.7, 564.1 221.2 M 567.0 223.7 Q 567.9 223.7, 568.4 223.1 Q 568.9 222.5, 568.9 221.2 Q 568.9 220.0, 568.4 219.4 Q 567.9 218.8, 567.0 218.8 Q 566.0 218.8, 565.5 219.4 Q 565.0 220.0, 565.0 221.2 Q 565.0 222.5, 565.5 223.1 Q 566.0 223.7, 567.0 223.7 " fill="#FF0000"/>
<path class="atom-37" d="M 655.7 122.6 L 659.4 122.6 L 659.4 123.3 L 656.6 123.3 L 656.6 125.2 L 659.1 125.2 L 659.1 125.9 L 656.6 125.9 L 656.6 128.8 L 655.7 128.8 L 655.7 122.6 " fill="#33CCCC"/>
<path class="atom-38" d="M 628.4 136.4 L 632.1 136.4 L 632.1 137.1 L 629.2 137.1 L 629.2 139.0 L 631.8 139.0 L 631.8 139.7 L 629.2 139.7 L 629.2 142.6 L 628.4 142.6 L 628.4 136.4 " fill="#33CCCC"/>
<path class="atom-39" d="M 669.5 150.0 L 673.2 150.0 L 673.2 150.7 L 670.4 150.7 L 670.4 152.5 L 672.9 152.5 L 672.9 153.2 L 670.4 153.2 L 670.4 156.1 L 669.5 156.1 L 669.5 150.0 " fill="#33CCCC"/>
<path class="atom-43" d="M 678.7 232.7 L 682.4 232.7 L 682.4 233.4 L 679.6 233.4 L 679.6 235.3 L 682.1 235.3 L 682.1 236.0 L 679.6 236.0 L 679.6 238.9 L 678.7 238.9 L 678.7 232.7 " fill="#33CCCC"/>
<path class="atom-44" d="M 680.4 202.2 L 684.1 202.2 L 684.1 202.9 L 681.3 202.9 L 681.3 204.7 L 683.8 204.7 L 683.8 205.5 L 681.3 205.5 L 681.3 208.3 L 680.4 208.3 L 680.4 202.2 " fill="#33CCCC"/>
<path class="atom-45" d="M 648.2 231.0 L 651.8 231.0 L 651.8 231.7 L 649.0 231.7 L 649.0 233.6 L 651.5 233.6 L 651.5 234.3 L 649.0 234.3 L 649.0 237.2 L 648.2 237.2 L 648.2 231.0 " fill="#33CCCC"/>
</svg>